<svg xmlns="http://www.w3.org/2000/svg" xmlns:xlink="http://www.w3.org/1999/xlink" xmlns:lucid="lucid" width="860" height="480"><g transform="translate(40 -200)" lucid:page-tab-id="FfN4Nd7VJv3D"><path d="M181 620h618M181.03 620H180M798.97 620H800" stroke="#99d5ca" stroke-width="2" fill="none"/><path d="M360 620h180v40H360z" stroke="#000" stroke-opacity="0" stroke-width="2" fill="#fff" fill-opacity="0"/><use xlink:href="#a" transform="matrix(1,0,0,1,365,625) translate(37.66666666666667 20.44455295138889)"/><use xlink:href="#b" transform="matrix(1,0,0,1,365,625) translate(53.44444444444445 20.44455295138889)"/><use xlink:href="#c" transform="matrix(1,0,0,1,365,625) translate(69.22222222222223 20.44455295138889)"/><use xlink:href="#d" transform="matrix(1,0,0,1,365,625) translate(85 20.44455295138889)"/><use xlink:href="#e" transform="matrix(1,0,0,1,365,625) translate(100.77777777777779 20.44455295138889)"/><use xlink:href="#f" transform="matrix(1,0,0,1,365,625) translate(116.55555555555556 20.44455295138889)"/><path d="M200 380.5v199M200 380.5v-.5M200 579.5v.5M220 380.5v199M220 380.5v-.5M220 579.5v.5M240 380.5v199M240 380.5v-.5M240 579.5v.5M260 380.5v199M260 380.5v-.5M260 579.5v.5M280 380.5v199M280 380.5v-.5M280 579.5v.5M300 380.5v199M300 380.5v-.5M300 579.5v.5M320 380.5v199M320 380.5v-.5M320 579.5v.5M340 380.5v199M340 380.5v-.5M340 579.5v.5M360 380.5v199M360 380.5v-.5M360 579.5v.5M380 380.5v199M380 380.5v-.5M380 579.5v.5M400 380.5v199M400 380.5v-.5M400 579.5v.5M420 380.5v199M420 380.5v-.5M420 579.5v.5M440 380.5v199M440 380.5v-.5M440 579.5v.5M460 380.5v199M460 380.5v-.5M460 579.5v.5M480 380.5v199M480 380.5v-.5M480 579.5v.5M500 380.5v199M500 380.5v-.5M500 579.5v.5M520 380.5v199M520 380.5v-.5M520 579.5v.5M540 380.5v199M540 380.5v-.5M540 579.5v.5M560 380.5v199M560 380.5v-.5M560 579.5v.5M580 380.5v199M580 380.5v-.5M580 579.5v.5M600 380.5v199M600 380.5v-.5M600 579.5v.5M620 380.5v199M620 380.5v-.5M620 579.5v.5M640 380.5v199M640 380.5v-.5M640 579.5v.5M660 380.5v199M660 380.5v-.5M660 579.5v.5M680 380.5v199M680 380.5v-.5M680 579.5v.5M700 380.5v199M700 380.5v-.5M700 579.5v.5M720 380.5v199M720 380.5v-.5M720 579.5v.5M740 380.5v199M740 380.5v-.5M740 579.5v.5M760 380.5v199M760 380.5v-.5M760 579.5v.5M780 380.5v199M780 380.5v-.5M780 579.5v.5M800 380.5v199M800 380.5v-.5M800 579.5v.5M120 380.5v199M120 380.5v-.5M120 579.5v.5M140 380.5v199M140 380.5v-.5M140 579.5v.5M160 380.5v199M160 380.5v-.5M160 579.5v.5M180 380.5v199M180 380.5v-.5M180 579.5v.5" stroke="#a7eade" fill="none"/><path d="M180 601v18M180 601.03V600M180 618.97V620M800 601v18M800 601.03V600M800 618.97V620M400 601v18M400 601.03V600M400 618.97V620" stroke="#99d5ca" stroke-width="2" fill="none"/><path d="M180 600h180v20H180z" stroke="#000" stroke-opacity="0" stroke-width="2" fill="#fff" fill-opacity="0"/><use xlink:href="#g" transform="matrix(1,0,0,1,185,605) translate(79.33333333333333 7.033854166666666)"/><path d="M700 619v-18M700 618.97V620M700 601.03V600" stroke="#99d5ca" stroke-width="2" fill="none"/><path d="M400 600h300v20H400z" stroke="#000" stroke-opacity="0" stroke-width="2" fill="#fff" fill-opacity="0"/><use xlink:href="#h" transform="matrix(1,0,0,1,405,605) translate(128 7.033854166666666)"/><use xlink:href="#i" transform="matrix(1,0,0,1,405,605) translate(139.33333333333334 7.033854166666666)"/><use xlink:href="#j" transform="matrix(1,0,0,1,405,605) translate(150.66666666666666 7.033854166666666)"/><path d="M700 600h100v20H700z" stroke="#000" stroke-opacity="0" stroke-width="2" fill="#fff" fill-opacity="0"/><use xlink:href="#k" transform="matrix(1,0,0,1,705,605) translate(28 7.033854166666666)"/><use xlink:href="#l" transform="matrix(1,0,0,1,705,605) translate(39.333333333333336 7.033854166666666)"/><use xlink:href="#m" transform="matrix(1,0,0,1,705,605) translate(50.66666666666667 7.033854166666666)"/><path d="M120 600h60v20h-60z" stroke="#000" stroke-opacity="0" stroke-width="2" fill="#fff" fill-opacity="0"/><use xlink:href="#n" transform="matrix(1,0,0,1,125,605) translate(8 7.033854166666666)"/><use xlink:href="#o" transform="matrix(1,0,0,1,125,605) translate(19.333333333333336 7.033854166666666)"/><use xlink:href="#p" transform="matrix(1,0,0,1,125,605) translate(30.666666666666668 7.033854166666666)"/><path d="M120 601v18M120 601.03V600M120 618.97V620M121 620h58M121.03 620H120M178.97 620H180" stroke="#99d5ca" stroke-width="2" fill="none"/><path d="M120 380h60v40h-60z" stroke="#ef8d22" stroke-width="2" fill="#fff" fill-opacity=".9"/><use xlink:href="#q" transform="matrix(1,0,0,1,125,385) translate(4.666666666666668 19.96820746527778)"/><use xlink:href="#r" transform="matrix(1,0,0,1,125,385) translate(18.22222222222222 19.96820746527778)"/><use xlink:href="#s" transform="matrix(1,0,0,1,125,385) translate(31.77777777777778 19.96820746527778)"/><path d="M40 380h60v40H40z" fill="#fff" fill-opacity="0"/><use xlink:href="#t" transform="matrix(1,0,0,1,45,385) translate(18.444444444444443 22.50705295138889)"/><use xlink:href="#u" transform="matrix(1,0,0,1,45,385) translate(34.22222222222222 22.50705295138889)"/><path d="M40 420h60v40H40z" fill="#fff" fill-opacity="0"/><use xlink:href="#v" transform="matrix(1,0,0,1,45,425) translate(2.6666666666666643 22.50705295138889)"/><use xlink:href="#w" transform="matrix(1,0,0,1,45,425) translate(18.444444444444443 22.50705295138889)"/><use xlink:href="#x" transform="matrix(1,0,0,1,45,425) translate(34.22222222222222 22.50705295138889)"/><path d="M180 420h40v40h-40z" stroke="#3aa6dd" stroke-width="2" fill="#fff" fill-opacity=".9"/><use xlink:href="#y" transform="matrix(1,0,0,1,185,425) translate(1.4444444444444446 19.96820746527778)"/><use xlink:href="#z" transform="matrix(1,0,0,1,185,425) translate(15 19.96820746527778)"/><path d="M-20 460h120v40H-20z" fill="#fff" fill-opacity="0"/><use xlink:href="#A" transform="matrix(1,0,0,1,-15,465) translate(15.032877604166657 22.50705295138889)"/><use xlink:href="#B" transform="matrix(1,0,0,1,-15,465) translate(30.810655381944436 22.50705295138889)"/><use xlink:href="#C" transform="matrix(1,0,0,1,-15,465) translate(46.588433159722214 22.50705295138889)"/><use xlink:href="#D" transform="matrix(1,0,0,1,-15,465) translate(67.03483072916666 22.50705295138889)"/><use xlink:href="#E" transform="matrix(1,0,0,1,-15,465) translate(78.44444444444443 22.50705295138889)"/><use xlink:href="#F" transform="matrix(1,0,0,1,-15,465) translate(94.22222222222221 22.50705295138889)"/><path d="M220 460h180v40H220z" stroke="#c92d39" stroke-width="2" fill="#fff" fill-opacity=".9"/><g><use xlink:href="#G" transform="matrix(1,0,0,1,225,465) translate(24 20.15570746527778)"/><use xlink:href="#H" transform="matrix(1,0,0,1,225,465) translate(37.55555555555556 20.15570746527778)"/><use xlink:href="#I" transform="matrix(1,0,0,1,225,465) translate(51.111111111111114 20.15570746527778)"/><use xlink:href="#J" transform="matrix(1,0,0,1,225,465) translate(64.66666666666666 20.15570746527778)"/><use xlink:href="#K" transform="matrix(1,0,0,1,225,465) translate(78.22222222222223 20.15570746527778)"/><use xlink:href="#L" transform="matrix(1,0,0,1,225,465) translate(91.77777777777777 20.15570746527778)"/><use xlink:href="#M" transform="matrix(1,0,0,1,225,465) translate(105.33333333333333 20.15570746527778)"/><use xlink:href="#N" transform="matrix(1,0,0,1,225,465) translate(118.88888888888889 20.15570746527778)"/><use xlink:href="#O" transform="matrix(1,0,0,1,225,465) translate(132.44444444444446 20.15570746527778)"/></g><path d="M40 500h60v40H40z" fill="#fff" fill-opacity="0"/><g><use xlink:href="#P" transform="matrix(1,0,0,1,45,505) translate(18.444444444444443 22.50705295138889)"/><use xlink:href="#Q" transform="matrix(1,0,0,1,45,505) translate(34.22222222222222 22.50705295138889)"/></g><path d="M40 540h60v40H40z" fill="#fff" fill-opacity="0"/><g><use xlink:href="#R" transform="matrix(1,0,0,1,45,545) translate(2.6666666666666643 22.50705295138889)"/><use xlink:href="#S" transform="matrix(1,0,0,1,45,545) translate(18.444444444444443 22.50705295138889)"/><use xlink:href="#T" transform="matrix(1,0,0,1,45,545) translate(34.22222222222222 22.50705295138889)"/></g><g filter="url(#U)"><path d="M319 246h76c2.76 0 5 2.24 5 5v94c0 2.76-2.24 5-5 5H185c-2.76 0-5-2.24-5-5V225c0-2.76 2.24-5 5-5h122c2.76 0 5.58 2.16 6.3 4.83zm-139 0h139" stroke="#ef8d22" stroke-width="2" fill="#fff"/><use xlink:href="#V" transform="matrix(1,0,0,1,188,220) translate(0 19.282606336805557)"/><use xlink:href="#W" transform="matrix(1,0,0,1,188,220) translate(15.777777777777779 19.282606336805557)"/><use xlink:href="#X" transform="matrix(1,0,0,1,188,220) translate(31.555555555555557 19.282606336805557)"/><use xlink:href="#Y" transform="matrix(1,0,0,1,188,220) translate(47.333333333333336 19.282606336805557)"/><use xlink:href="#Z" transform="matrix(1,0,0,1,188,220) translate(63.111111111111114 19.282606336805557)"/><use xlink:href="#aa" transform="matrix(1,0,0,1,188,220) translate(78.88888888888889 19.282606336805557)"/><g><use xlink:href="#ab" transform="matrix(1,0,0,1,192,254) translate(0 16.69455295138889)"/><use xlink:href="#ac" transform="matrix(1,0,0,1,192,254) translate(11.49435763888889 16.69455295138889)"/><use xlink:href="#ad" transform="matrix(1,0,0,1,192,254) translate(27.272135416666668 16.69455295138889)"/><use xlink:href="#ae" transform="matrix(1,0,0,1,192,254) translate(43.04991319444444 16.69455295138889)"/><use xlink:href="#af" transform="matrix(1,0,0,1,192,254) translate(58.82769097222222 16.69455295138889)"/><use xlink:href="#ag" transform="matrix(1,0,0,1,192,254) translate(74.60546875 16.69455295138889)"/><use xlink:href="#ah" transform="matrix(1,0,0,1,192,254) translate(90.38324652777777 16.69455295138889)"/><use xlink:href="#ai" transform="matrix(1,0,0,1,192,254) translate(106.16102430555554 16.69455295138889)"/><use xlink:href="#aj" transform="matrix(1,0,0,1,192,254) translate(121.93880208333331 16.69455295138889)"/><use xlink:href="#ak" transform="matrix(1,0,0,1,192,254) translate(137.7165798611111 16.69455295138889)"/><use xlink:href="#al" transform="matrix(1,0,0,1,192,254) translate(153.49435763888886 16.69455295138889)"/><use xlink:href="#am" transform="matrix(1,0,0,1,192,254) translate(0 37.51844618055556)"/><use xlink:href="#ac" transform="matrix(1,0,0,1,192,254) translate(11.49435763888889 37.51844618055556)"/><use xlink:href="#an" transform="matrix(1,0,0,1,192,254) translate(27.272135416666668 37.51844618055556)"/><use xlink:href="#ao" transform="matrix(1,0,0,1,192,254) translate(43.04991319444444 37.51844618055556)"/><use xlink:href="#ai" transform="matrix(1,0,0,1,192,254) translate(58.82769097222222 37.51844618055556)"/><use xlink:href="#aj" transform="matrix(1,0,0,1,192,254) translate(74.60546875 37.51844618055556)"/><use xlink:href="#ak" transform="matrix(1,0,0,1,192,254) translate(90.38324652777777 37.51844618055556)"/><use xlink:href="#ap" transform="matrix(1,0,0,1,192,254) translate(106.16102430555554 37.51844618055556)"/></g></g><g filter="url(#aq)"><path d="M589 246h106c2.76 0 5 2.24 5 5v94c0 2.76-2.24 5-5 5H405c-2.76 0-5-2.24-5-5V225c0-2.76 2.24-5 5-5h170c2.76 0 5.73 2.12 6.64 4.72zm-189 0h189" stroke="#ef8d22" stroke-width="2" fill="#fff"/><use xlink:href="#V" transform="matrix(1,0,0,1,408,220) translate(0 19.282606336805557)"/><use xlink:href="#W" transform="matrix(1,0,0,1,408,220) translate(15.777777777777779 19.282606336805557)"/><use xlink:href="#X" transform="matrix(1,0,0,1,408,220) translate(31.555555555555557 19.282606336805557)"/><use xlink:href="#Y" transform="matrix(1,0,0,1,408,220) translate(47.333333333333336 19.282606336805557)"/><use xlink:href="#Z" transform="matrix(1,0,0,1,408,220) translate(63.111111111111114 19.282606336805557)"/><use xlink:href="#aa" transform="matrix(1,0,0,1,408,220) translate(78.88888888888889 19.282606336805557)"/><g><use xlink:href="#ab" transform="matrix(1,0,0,1,412,254) translate(0 16.69455295138889)"/><use xlink:href="#ak" transform="matrix(1,0,0,1,412,254) translate(11.49435763888889 16.69455295138889)"/><use xlink:href="#ar" transform="matrix(1,0,0,1,412,254) translate(27.272135416666668 16.69455295138889)"/><use xlink:href="#aj" transform="matrix(1,0,0,1,412,254) translate(43.04991319444444 16.69455295138889)"/><use xlink:href="#as" transform="matrix(1,0,0,1,412,254) translate(58.82769097222222 16.69455295138889)"/><use xlink:href="#at" transform="matrix(1,0,0,1,412,254) translate(74.60546875 16.69455295138889)"/><use xlink:href="#au" transform="matrix(1,0,0,1,412,254) translate(106.16102430555556 16.69455295138889)"/><use xlink:href="#av" transform="matrix(1,0,0,1,412,254) translate(121.93880208333334 16.69455295138889)"/><use xlink:href="#aw" transform="matrix(1,0,0,1,412,254) translate(137.71657986111111 16.69455295138889)"/><use xlink:href="#ax" transform="matrix(1,0,0,1,412,254) translate(153.49435763888889 16.69455295138889)"/><use xlink:href="#am" transform="matrix(1,0,0,1,412,254) translate(0 37.51844618055556)"/><use xlink:href="#ay" transform="matrix(1,0,0,1,412,254) translate(11.49435763888889 37.51844618055556)"/><use xlink:href="#az" transform="matrix(1,0,0,1,412,254) translate(27.272135416666668 37.51844618055556)"/><use xlink:href="#ac" transform="matrix(1,0,0,1,412,254) translate(43.04991319444444 37.51844618055556)"/><use xlink:href="#aA" transform="matrix(1,0,0,1,412,254) translate(58.82769097222222 37.51844618055556)"/><use xlink:href="#aB" transform="matrix(1,0,0,1,412,254) translate(74.60546875 37.51844618055556)"/><use xlink:href="#aC" transform="matrix(1,0,0,1,412,254) translate(90.38324652777777 37.51844618055556)"/><use xlink:href="#aD" transform="matrix(1,0,0,1,412,254) translate(106.16102430555554 37.51844618055556)"/><use xlink:href="#aE" transform="matrix(1,0,0,1,412,254) translate(137.7165798611111 37.51844618055556)"/><use xlink:href="#aF" transform="matrix(1,0,0,1,412,254) translate(153.49435763888886 37.51844618055556)"/><use xlink:href="#aG" transform="matrix(1,0,0,1,412,254) translate(169.27213541666663 37.51844618055556)"/><use xlink:href="#aH" transform="matrix(1,0,0,1,412,254) translate(185.0499131944444 37.51844618055556)"/><use xlink:href="#aI" transform="matrix(1,0,0,1,412,254) translate(200.82769097222217 37.51844618055556)"/><use xlink:href="#aJ" transform="matrix(1,0,0,1,412,254) translate(216.60546874999994 37.51844618055556)"/><use xlink:href="#aK" transform="matrix(1,0,0,1,412,254) translate(232.38324652777771 37.51844618055556)"/><use xlink:href="#aL" transform="matrix(1,0,0,1,412,254) translate(248.1610243055555 37.51844618055556)"/><use xlink:href="#aM" transform="matrix(1,0,0,1,412,254) translate(0 58.34233940972223)"/><use xlink:href="#aN" transform="matrix(1,0,0,1,412,254) translate(15.777777777777779 58.34233940972223)"/><use xlink:href="#au" transform="matrix(1,0,0,1,412,254) translate(31.555555555555557 58.34233940972223)"/><use xlink:href="#aO" transform="matrix(1,0,0,1,412,254) translate(47.333333333333336 58.34233940972223)"/><use xlink:href="#aP" transform="matrix(1,0,0,1,412,254) translate(78.88888888888889 58.34233940972223)"/><use xlink:href="#W" transform="matrix(1,0,0,1,412,254) translate(94.66666666666666 58.34233940972223)"/><use xlink:href="#aQ" transform="matrix(1,0,0,1,412,254) translate(110.44444444444443 58.34233940972223)"/><use xlink:href="#aR" transform="matrix(1,0,0,1,412,254) translate(126.2222222222222 58.34233940972223)"/><use xlink:href="#aS" transform="matrix(1,0,0,1,412,254) translate(141.99999999999997 58.34233940972223)"/><use xlink:href="#aT" transform="matrix(1,0,0,1,412,254) translate(157.77777777777774 58.34233940972223)"/><use xlink:href="#am" transform="matrix(1,0,0,1,412,254) translate(0 79.16623263888889)"/><use xlink:href="#ac" transform="matrix(1,0,0,1,412,254) translate(11.49435763888889 79.16623263888889)"/><use xlink:href="#aA" transform="matrix(1,0,0,1,412,254) translate(27.272135416666668 79.16623263888889)"/><use xlink:href="#aU" transform="matrix(1,0,0,1,412,254) translate(43.04991319444444 79.16623263888889)"/><use xlink:href="#ae" transform="matrix(1,0,0,1,412,254) translate(58.82769097222222 79.16623263888889)"/><use xlink:href="#af" transform="matrix(1,0,0,1,412,254) translate(74.60546875 79.16623263888889)"/><use xlink:href="#ag" transform="matrix(1,0,0,1,412,254) translate(90.38324652777777 79.16623263888889)"/><use xlink:href="#aC" transform="matrix(1,0,0,1,412,254) translate(106.16102430555554 79.16623263888889)"/><use xlink:href="#aV" transform="matrix(1,0,0,1,412,254) translate(121.93880208333331 79.16623263888889)"/></g></g><path d="M400 460h100v40H400z" stroke="#c92d39" stroke-width="2" fill="#fff" fill-opacity=".9"/><g><use xlink:href="#aW" transform="matrix(1,0,0,1,405,465) translate(4.333333333333336 19.96820746527778)"/><use xlink:href="#aX" transform="matrix(1,0,0,1,405,465) translate(17.888888888888893 19.96820746527778)"/><use xlink:href="#aY" transform="matrix(1,0,0,1,405,465) translate(31.444444444444446 19.96820746527778)"/><use xlink:href="#aZ" transform="matrix(1,0,0,1,405,465) translate(45 19.96820746527778)"/><use xlink:href="#ba" transform="matrix(1,0,0,1,405,465) translate(58.55555555555556 19.96820746527778)"/><use xlink:href="#bb" transform="matrix(1,0,0,1,405,465) translate(72.11111111111111 19.96820746527778)"/></g><path d="M420 500h100v40H420z" stroke="#834187" stroke-width="2" fill="#fff" fill-opacity=".9"/><g><use xlink:href="#bc" transform="matrix(1,0,0,1,425,505) translate(4.333333333333336 19.96820746527778)"/><use xlink:href="#bd" transform="matrix(1,0,0,1,425,505) translate(17.888888888888893 19.96820746527778)"/><use xlink:href="#be" transform="matrix(1,0,0,1,425,505) translate(31.444444444444446 19.96820746527778)"/><use xlink:href="#bf" transform="matrix(1,0,0,1,425,505) translate(45 19.96820746527778)"/><use xlink:href="#bg" transform="matrix(1,0,0,1,425,505) translate(58.55555555555556 19.96820746527778)"/><use xlink:href="#bh" transform="matrix(1,0,0,1,425,505) translate(72.11111111111111 19.96820746527778)"/></g><path d="M540 500h60v40h-60z" stroke="#834187" stroke-width="2" fill="#fff" fill-opacity=".9"/><g><use xlink:href="#bi" transform="matrix(1,0,0,1,545,505) translate(5.464246961805557 19.96820746527778)"/><use xlink:href="#bj" transform="matrix(1,0,0,1,545,505) translate(19.019802517361114 19.96820746527778)"/><use xlink:href="#bk" transform="matrix(1,0,0,1,545,505) translate(36.58642578125 19.96820746527778)"/></g><path d="M620 500h60v40h-60z" stroke="#834187" stroke-width="2" fill="#fff" fill-opacity=".9"/><g><use xlink:href="#bi" transform="matrix(1,0,0,1,625,505) translate(5.464246961805557 19.96820746527778)"/><use xlink:href="#bj" transform="matrix(1,0,0,1,625,505) translate(19.019802517361114 19.96820746527778)"/><use xlink:href="#bl" transform="matrix(1,0,0,1,625,505) translate(36.58642578125 19.96820746527778)"/></g><path d="M640 540h60v40h-60z" stroke="#fcc438" stroke-width="2" fill="#fff" fill-opacity=".9"/><g><use xlink:href="#bm" transform="matrix(1,0,0,1,645,545) translate(5.464246961805557 19.96820746527778)"/><use xlink:href="#bn" transform="matrix(1,0,0,1,645,545) translate(19.019802517361114 19.96820746527778)"/><use xlink:href="#bo" transform="matrix(1,0,0,1,645,545) translate(36.58642578125 19.96820746527778)"/></g><path d="M560 540h60v40h-60z" stroke="#fcc438" stroke-width="2" fill="#fff" fill-opacity=".9"/><g><use xlink:href="#bm" transform="matrix(1,0,0,1,565,545) translate(5.464246961805557 19.96820746527778)"/><use xlink:href="#bn" transform="matrix(1,0,0,1,565,545) translate(19.019802517361114 19.96820746527778)"/><use xlink:href="#bp" transform="matrix(1,0,0,1,565,545) translate(36.58642578125 19.96820746527778)"/></g><defs><path fill="#5abaa7" d="M744-1537h1278v150h-452V-51c0 181-89 274-268 274H936c-8-49-19-111-32-184 133 12 249 18 346 18 100 0 150-51 150-152v-1292H744v-150zm96 1124c13 68 27 127 40 176C747-149 612-55 478 49c-37 28-75 66-116 110L236 37c52-49 78-119 78-208v-692H26v-152h450v866c100-68 221-156 364-264zM270-1669c133 117 253 229 358 336l-132 124c-97-112-211-229-340-350" id="bq"/><use transform="matrix(0.007703993055555556,0,0,0.007703993055555556,0,0)" xlink:href="#bq" id="a"/><path fill="#5abaa7" d="M40-291h906v-226H392v94H240v-970h415c-64-75-133-151-207-230l114-94c99 95 185 182 260 262l-74 62h469c73-97 148-203 223-318l160 86c-69 83-135 161-199 232h409v970h-152v-94h-556v226h906v144h-906v422H946v-422H40v-144zm1062-366h556v-232h-556v232zm-710 0h554v-232H392v232zm1266-596h-556v228h556v-228zM392-1025h554v-228H392v228" id="br"/><use transform="matrix(0.007703993055555556,0,0,0.007703993055555556,0,0)" xlink:href="#br" id="b"/><path fill="#5abaa7" d="M40-5h928v-510H260v-154h708v-462H440c-89 160-191 305-306 434-28-44-64-91-108-140 188-211 337-468 446-772l164 44c-35 97-74 191-117 280h449v-424h172v424h764v154h-764v462h708v154h-708V-5h872v150H40V-5" id="bs"/><use transform="matrix(0.007703993055555556,0,0,0.007703993055555556,0,0)" xlink:href="#bs" id="c"/><path fill="#5abaa7" d="M234-773h642V81H730V-49H380v150H234v-874zm868-22h724v590c0 157-75 236-224 238-69 1-148 1-236-2-5-49-13-105-24-166 89 11 159 16 210 16 85 0 128-45 128-134v-402h-430v938h-148V-795zm78-898l-40 44c223 259 516 445 880 558-40 57-73 109-98 156-365-159-660-363-884-612-204 232-511 445-922 640-27-49-56-96-88-140 403-165 713-381 932-646h220zM730-633H380v444h350v-444zm-180-490h956v140H550v-140" id="bt"/><use transform="matrix(0.007703993055555556,0,0,0.007703993055555556,0,0)" xlink:href="#bt" id="d"/><path fill="#5abaa7" d="M18 129c189-311 198-430 198-972v-776h1698V-23c0 172-83 259-248 262-95 1-200 0-316-4-5-40-16-94-32-162 129 8 229 12 298 12 95 0 142-45 142-134v-1426H376c-2 368 9 1072-44 1292-37 154-99 303-200 446-39-49-77-94-114-134zm618-736h856v540H788V61H636v-668zM472-909h514v-202H564v-136h422v-176h156v176h422v136h-422v202h516v136H472v-136zm868 706v-268H788v268h552" id="bu"/><use transform="matrix(0.007703993055555556,0,0,0.007703993055555556,0,0)" xlink:href="#bu" id="e"/><path fill="#5abaa7" d="M1206-1621h708V1c0 157-75 236-224 236-75 0-148-2-220-6-5-44-13-95-24-154 97 9 167 14 210 14 73 0 110-37 110-110v-420h-428c-15 292-103 535-266 728-36-37-76-75-120-112 108-124 174-253 206-386 67-280 42-1002 48-1412zM40-365h188v-924H64v-136h164v-244h148v244h416v-252h148v252h162v136H940v924h160v136H40v-136zm1307-206h419v-392h-412c1 172-1 303-7 392zm419-914h-412v390h412v-390zM376-365h416v-224H376v224zm0-352h416v-222H376v222zm0-350h416v-222H376v222zm0 876l122 96C363 50 241 172 130 271c-28-32-63-67-106-106C151 57 268-62 376-191zm262 94l96-98c93 69 181 139 264 210L892 129C817 54 733-21 638-97" id="bv"/><use transform="matrix(0.007703993055555556,0,0,0.007703993055555556,0,0)" xlink:href="#bv" id="f"/><path fill="#5abaa7" d="M1150-1535c276-3 531-30 764-82l52 154c-264 35-489 57-674 68v466h730v136h-286V255h-148V-793h-296c12 457-81 808-294 1054-32-41-67-84-106-128 172-188 258-466 258-834v-834zM84-637h408v-190h144v190h392v128H636V13c0 141-68 212-204 212-57 0-122-1-194-2-5-44-13-95-22-152 77 8 138 12 182 12 63 0 94-34 94-102v-490H84v-128zm-56-374h322c-57-90-110-167-160-232l108-76c44 53 101 129 170 226l-113 82h264c73-105 140-208 201-310l142 80c-65 83-126 160-185 230h303v128H28v-128zm64-464h432c-29-55-61-114-98-178l128-60c41 68 80 137 116 206l-67 32h425v128H92v-128zM238-419l136 64C302-204 231-68 160 53 121 29 77 5 28-19c65-101 135-235 210-400zm576 10c75 101 140 195 196 280L882-41c-59-103-121-199-186-290" id="bw"/><use transform="matrix(0.005533854166666667,0,0,0.005533854166666667,0,0)" xlink:href="#bw" id="g"/><path fill="#5abaa7" d="M546-1663c-28 129-59 253-94 372h534v146c-37 344-137 643-298 898C809-110 957-26 1130 5c204 36 501 45 892 28-23 52-42 107-58 166-365 13-649-3-852-40-204-37-375-126-514-274C482 37 341 172 176 289c-44-41-88-81-132-118C224 50 373-89 492-245c-96-143-172-321-228-534-41 92-85 180-132 264-28-37-67-83-116-138 164-292 285-637 364-1036zm686-18h166v670l88-102c189 128 360 254 512 378l-108 138c-141-124-305-253-492-388v938h-166v-1634zm-408 542H404c-16 48-32 95-48 140 55 252 131 457 230 616 135-221 214-473 238-756" id="bx"/><use transform="matrix(0.005533854166666667,0,0,0.005533854166666667,0,0)" xlink:href="#bx" id="h"/><path fill="#5abaa7" d="M650 53h626v-288H766v-140h510v-264H956v74H808v-1032h1084v1032h-148v-74h-320v264h510v140h-510V53h598v140H650V53zM14-65c103-25 202-49 298-74v-606H62v-140h250v-500H42v-140h688v140H460v500h254v140H460v566c88-25 173-49 256-74 7 60 14 112 22 156C510-36 287 29 68 97zm1410-710h320v-278h-320v278zm-468 0h320v-278H956v278zm788-686h-320v276h320v-276zm-788 276h320v-276H956v276" id="by"/><use transform="matrix(0.005533854166666667,0,0,0.005533854166666667,0,0)" xlink:href="#by" id="i"/><path fill="#5abaa7" d="M168-1271h770v-436h172v436h778v912h-164v-108h-614v744H938v-744H332v108H168v-912zm1556 148h-614v508h614v-508zM332-615h606v-508H332v508" id="bz"/><use transform="matrix(0.005533854166666667,0,0,0.005533854166666667,0,0)" xlink:href="#bz" id="j"/><path fill="#5abaa7" d="M236-1179h172v274h1196v-514H162v-148h1610v932h-168v-122H408v582C408-52 466 9 582 9h986c115 0 184-41 208-124 24-81 42-190 54-326 52 23 109 43 172 60-19 139-39 249-60 332-40 151-152 226-336 226H542c-204 0-306-105-306-316v-1040" id="bA"/><use transform="matrix(0.005533854166666667,0,0,0.005533854166666667,0,0)" xlink:href="#bA" id="k"/><path fill="#5abaa7" d="M88-627h1880v142h-646v424c0 88 43 132 130 132h212c91 0 141-31 152-92s18-149 22-262c48 19 107 39 176 60-9 109-23 198-36 268-21 114-99 172-242 172h-326c-167 0-250-85-250-256v-446H801c-3 376-224 627-661 752-27-44-60-93-100-148 395-96 595-297 602-604H88v-142zm16-824h856c-26-54-59-117-100-190l156-72c53 101 95 189 128 262h800v368h-164v-226H268v226H104v-368zm232 410h1408v140H336v-140" id="bB"/><use transform="matrix(0.005533854166666667,0,0,0.005533854166666667,0,0)" xlink:href="#bB" id="l"/><path fill="#5abaa7" d="M840-547h1056v812h-156V141H996v124H840v-812zm-40-380h488v-312H734v-144h554v-320h160v320h560v144h-560v312h490v144H800v-144zM286-501c177-25 324-48 440-68-8 52-14 103-18 152-148 21-350 53-606 94L70-471c85-89 187-229 305-422-112 7-214 15-305 22l-38-136c123-164 250-401 382-710l152 60c-144 283-262 495-354 638 77-2 158-4 242-7 45-77 93-162 142-253l148 74C592-952 439-717 286-501zm1454 94H996V1h744v-408zM24-29c247-48 487-101 722-158-4 53-6 104-6 152C524 10 300 64 68 125" id="bC"/><use transform="matrix(0.005533854166666667,0,0,0.005533854166666667,0,0)" xlink:href="#bC" id="m"/><path fill="#5abaa7" d="M2024-41c-37 45-75 95-112 148-351-175-621-402-810-680v836H946v-834C743-302 473-68 134 131 109 95 73 50 26-3c362-190 648-419 858-686H58v-148h888v-376H176v-148h770v-342h156v342h778v148h-778v376h888v148h-832c215 287 503 503 866 648" id="bD"/><use transform="matrix(0.005533854166666667,0,0,0.005533854166666667,0,0)" xlink:href="#bD" id="n"/><path fill="#5abaa7" d="M822-1613h998v790h-144v-58H966v58H822v-790zM510 179C698 22 803-204 826-497h150c-7 93-20 181-41 262 85 129 195 217 331 262v-602H648v-132h1348v132h-580v224h502v128h-502V59c91 11 292 10 604-2-3 7-18 56-46 148-159 4-323-2-494-6-269-7-467-98-594-284-56 139-137 259-244 358-40-33-84-65-132-94zM26-641c85-37 171-75 258-116v-426H42v-136h242v-372h152v372h256v136H436v352c77-38 153-78 230-120 4 52 9 105 16 160L436-668V29c0 129-49 200-148 210-69 7-147 9-234 6-8-56-17-111-26-166 73 8 136 12 188 12 45 0 68-25 68-74v-607c-80 41-159 83-238 125zm940-368h710v-176H966v176zm710-476H966v174h710v-174" id="bE"/><use transform="matrix(0.005533854166666667,0,0,0.005533854166666667,0,0)" xlink:href="#bE" id="o"/><path fill="#5abaa7" d="M1342-845l154 66c-99 226-218 410-355 551 200 148 484 254 851 317-49 67-89 123-120 168-355-91-639-216-850-377C839 23 547 154 148 271c-29-47-63-98-100-154C423 22 706-93 897-228 765-363 651-538 556-755l134-76c87 198 198 364 332 498 122-121 229-292 320-512zM62-1403h937c-31-65-76-145-135-238l148-72c57 80 108 164 152 252l-112 58h930v148H62v-148zm592 240l128 104C595-863 401-688 200-533c-33-41-71-84-112-128 201-143 390-310 566-502zm718-10c244 192 435 353 572 482-37 37-77 81-120 130-151-155-338-324-562-508" id="bF"/><use transform="matrix(0.005533854166666667,0,0,0.005533854166666667,0,0)" xlink:href="#bF" id="p"/><path fill="#ef8d22" d="M562-881h662v-334H887c-40 101-82 192-125 272-35-23-81-47-140-72 104-183 181-385 232-608l156 34c-23 83-48 162-73 236h287v-348h156v348h522v138h-522v334h618v138h-472v428c0 71 29 106 88 106 107 0 191 6 202-96 6-52 15-131 22-236 41 19 92 38 152 58-11 92-22 169-34 232-22 119-97 178-228 178h-148c-139 0-208-75-208-226v-444h-269c-1 61-3 115-5 162-9 249-148 434-420 554-27-39-60-83-100-134 235-97 357-237 366-420 3-40 5-94 7-162H562v-138zM862 63c389 7 770-3 1154-10-15 44-33 97-56 158-372 4-745 13-1116 2-240-7-406-89-498-242-55 51-135 140-240 268L24 73C142-41 227-123 280-172v-673H42v-148h392v855C516-7 659 59 862 63zM274-1665c68 83 161 209 280 378l-142 100c-108-169-197-300-266-392" id="bG"/><use transform="matrix(0.006618923611111111,0,0,0.006618923611111111,0,0)" xlink:href="#bG" id="q"/><path fill="#ef8d22" d="M26 137C197-53 236-242 238-619v-280h946c90-133 171-265 242-396l154 98c-71 99-145 199-222 298h592v140H400c4 246-12 541-54 668-42 128-108 251-212 364-35-43-71-88-108-136zm48-1608h913c-29-55-62-111-97-168l148-74c43 71 88 151 133 242h831v142H74v-142zm418 256l132-88c83 104 156 203 220 296l-142 98c-52-88-122-190-210-306" id="bH"/><use transform="matrix(0.006618923611111111,0,0,0.006618923611111111,0,0)" xlink:href="#bH" id="r"/><path fill="#ef8d22" d="M334-1615h1380v792h-160v-64H494v64H334v-792zm814 956h764v924h-152V129h-460v136h-152v-924zm-1010 0h762v924H748V131H290v134H138v-924zm1416-816H494v448h1060v-448zm206 956h-460V-1h460v-518zm-1012 0H290V-5h458v-514" id="bI"/><use transform="matrix(0.006618923611111111,0,0,0.006618923611111111,0,0)" xlink:href="#bI" id="s"/><path fill="#ef8d22" d="M684-1325l146 62c-31 38-61 75-92 110h922v126c-111 129-257 240-440 333 221 69 491 104 810 105-36 52-69 106-100 162-357-27-653-90-888-187C783-510 467-434 92-387c-23-49-51-97-84-144 337-34 623-90 858-168-128-73-232-161-311-262-100 96-204 182-311 258-29-35-64-71-104-108 236-161 417-333 544-514zM376-375h1304v636h-148v-84H524v84H376v-636zM136-1465h863c-36-55-80-114-131-176l136-86c53 61 109 129 166 204l-92 58h846v374h-148v-242H284v240H136v-372zM1532-247H524V49h1008v-296zm-84-778H683c90 107 208 194 355 261 170-73 307-160 410-261" id="bJ"/><use transform="matrix(0.007703993055555556,0,0,0.007703993055555556,0,0)" xlink:href="#bJ" id="t"/><path fill="#ef8d22" d="M872-1637l144-86c64 76 127 159 190 248l-98 62h746v886h-160v-104H431C413-247 314 60 134 289c-36-44-75-88-116-132C189-51 274-363 274-779v-634h763c-49-75-104-149-165-224zm-438 368v494h1260v-494H434" id="bK"/><use transform="matrix(0.007703993055555556,0,0,0.007703993055555556,0,0)" xlink:href="#bK" id="u"/><path fill="#3aa6dd" d="M1494-1683h164v440h286v144h-286v552h356v144H560v-144h338v-552H640v-144h258v-438h164v438h432v-440zM8-739c209-281 374-602 494-962l160 58c-69 178-140 341-214 490V269H288V-862C219-750 149-649 76-559 57-614 35-674 8-739zm1054 192h432v-552h-432v552zm336 302l118-100c211 195 375 357 494 488l-132 122c-136-161-296-331-480-510zm-238 4C1003-49 839 122 668 273c-36-41-77-80-122-116 169-128 328-293 476-494" id="bL"/><use transform="matrix(0.007703993055555556,0,0,0.007703993055555556,0,0)" xlink:href="#bL" id="v"/><path fill="#3aa6dd" d="M950-1643l146-78c57 73 112 153 164 238l-97 56h811v152H416v490c0 472-97 825-292 1058-32-44-71-90-116-138C168-44 248-349 248-781v-646h846c-43-73-91-145-144-216zM404 3h925c104-266 214-630 331-1092l174 48C1709-601 1599-253 1502 3h494v152H404V3zm108-982l152-52c83 243 163 515 240 816l-170 52c-61-264-135-536-222-816zm482-100l154-44c69 240 131 509 184 806l-176 46c-39-264-93-533-162-808" id="bM"/><use transform="matrix(0.007703993055555556,0,0,0.007703993055555556,0,0)" xlink:href="#bM" id="w"/><path fill="#3aa6dd" d="M192-1059h486c-46-67-96-134-150-200l122-82c64 75 122 144 174 208l-108 74h454c67-87 129-178 186-274l152 88c-63 75-117 137-160 186h498V-11c0 168-77 253-230 254-83 1-176 1-280-2-11-77-21-133-30-168 105 11 192 16 260 16 87 0 130-48 130-144v-866H342V267H192v-1326zM624 69v-644h802v538H768V69H624zM46-1487h913c-25-47-56-100-93-158l154-70c40 69 82 145 126 228h862v142H46v-142zM1282-165v-282H768v282h514zM778-899l108 104C730-662 584-544 448-443c-40-55-71-94-94-118 147-97 288-210 424-338zm352 110l88-110c197 124 347 223 448 298l-100 126c-132-107-277-211-436-314" id="bN"/><use transform="matrix(0.007703993055555556,0,0,0.007703993055555556,0,0)" xlink:href="#bN" id="x"/><path fill="#3aa6dd" d="M790-1595h1106c-7 136-14 239-18 308-10 165-107 248-292 248-77 0-190-1-338-4-9-51-20-104-32-160 147 13 264 20 352 20 100 0 153-41 160-122 4-43 7-93 8-150H946v572h962v138c-65 239-173 440-325 604 122 99 269 179 441 238-47 59-85 108-116 148-171-82-317-175-439-280-125 103-268 202-431 296-24-40-53-85-88-136 157-85 293-175 407-268-137-154-234-354-290-600H946V275H790v-1870zM30-639c101-28 198-56 292-83v-433H56v-138h266v-390h154v390h238v138H476v386c81-25 159-51 234-76 0 64 1 116 4 156-77 25-157 50-238 77V21c0 144-65 217-194 220-53 1-119 1-198 0-8-56-17-113-26-170 79 8 138 12 178 12 57 0 86-33 86-98v-547c-89 29-179 58-272 89zm1716-104h-538c45 195 132 361 261 498 133-139 225-305 277-498" id="bO"/><use transform="matrix(0.006618923611111111,0,0,0.006618923611111111,0,0)" xlink:href="#bO" id="y"/><path fill="#3aa6dd" d="M22-693c180-281 321-611 422-990l156 48c-48 153-99 297-152 430V273H298V-871C231-740 162-623 90-519c-25-72-48-130-68-174zm1360-994l-28 50c165 292 388 503 668 632-35 40-71 87-110 140-271-156-484-369-640-640-149 257-360 481-632 672-32-47-67-89-104-126 301-189 523-432 666-728h180zm-322 782v284c0 385-111 687-332 906-39-39-83-76-134-112C801-16 904-276 904-607v-298h156zm422 0h156V265h-156V-905" id="bP"/><use transform="matrix(0.006618923611111111,0,0,0.006618923611111111,0,0)" xlink:href="#bP" id="z"/><path fill="#c92d39" d="M340-843h1232v482h-152v-50H494v152h1246v522h-152v-76H494v78H340V-843zm-226-278h855c-23-42-52-89-85-140l138-60c44 64 84 131 120 200h790v310h-154v-180H268v182H114v-312zm1474 982H494V57h1094v-196zm-952-992c-51-67-106-135-166-204l90-64H388c-77 97-162 183-256 258-27-32-60-69-100-112 156-121 283-274 382-458h172c-33 66-70 129-109 188h587v124H584c60 58 117 117 170 178zm784 408H494v192h926v-192zm130-410c-44-63-98-131-162-204l87-62h-169c-39 62-79 119-122 172-29-29-70-62-122-98 93-104 171-233 234-386h172c-29 66-59 129-91 188h639v124h-512c61 59 115 117 164 176" id="bQ"/><use transform="matrix(0.007703993055555556,0,0,0.007703993055555556,0,0)" xlink:href="#bQ" id="A"/><path fill="#c92d39" d="M650 53h626v-288H766v-140h510v-264H956v74H808v-1032h1084v1032h-148v-74h-320v264h510v140h-510V53h598v140H650V53zM14-65c103-25 202-49 298-74v-606H62v-140h250v-500H42v-140h688v140H460v500h254v140H460v566c88-25 173-49 256-74 7 60 14 112 22 156C510-36 287 29 68 97zm1410-710h320v-278h-320v278zm-468 0h320v-278H956v278zm788-686h-320v276h320v-276zm-788 276h320v-276H956v276" id="bR"/><use transform="matrix(0.007703993055555556,0,0,0.007703993055555556,0,0)" xlink:href="#bR" id="B"/><path fill="#c92d39" d="M352-1613h1344v622h-160v-74H512v74H352v-622zm742 936c1 126-3 292-30 400 288 113 603 249 944 408l-90 150c-260-135-562-275-906-420-24 48-54 91-92 126-154 145-416 245-784 304-23-56-52-107-88-152C423 82 669-9 792-127c80-76 125-185 134-330 5-75 7-148 6-220h162zM242-877h1566v730h-160v-590H402v602H242v-742zm1294-328v-268H512v268h1024" id="bS"/><use transform="matrix(0.007703993055555556,0,0,0.007703993055555556,0,0)" xlink:href="#bS" id="C"/><path fill="#c92d39" d="M893-1549L150 257H-33l743-1806h183" id="bT"/><use transform="matrix(0.007703993055555556,0,0,0.007703993055555556,0,0)" xlink:href="#bT" id="D"/><path fill="#c92d39" d="M954 269H808v-1400h458v-568h154v568h478V29c0 155-73 232-218 232-75 0-181-2-318-6-8-49-17-104-28-164 125 8 221 12 286 12 88 0 132-37 132-112v-190H954v468zM728-173c0 59 3 114 10 166-85 41-184 97-298 164-24 14-52 36-84 68L250 87c43-39 64-89 64-150v-436H46v-138h268v-270H184v-138h510v138H460v270h280v138H460v476c97-52 187-102 268-150zm226-170h798v-248H954v248zm798-638H954v246h798v-246zM28-1083c129-185 233-391 310-618l150 50c-36 89-75 175-116 258h370v138H302c-59 108-122 211-190 308-25-48-53-93-84-136zm1516-210c95-103 187-216 276-340l132 100c-81 99-181 210-300 334zm-802-262l110-84c96 95 191 201 284 320l-126 102c-92-129-181-242-268-338" id="bU"/><use transform="matrix(0.007703993055555556,0,0,0.007703993055555556,0,0)" xlink:href="#bU" id="E"/><path fill="#c92d39" d="M992-1647l128-76c59 76 111 149 158 218l-76 46h732v124h-710v144h648v124h-648v144h648v124h-648v148h750v124H422v78H274v-678c-55 64-111 125-168 182-27-41-58-83-94-126 199-185 355-398 468-638l144 52c-37 69-75 135-114 198h608c-37-61-79-124-126-188zM278-371h1512v644h-148V171H426v102H278v-644zm1364 128H426V43h1216v-286zM422-651h654v-148H422v148zm0-272h654v-144H422v144zm0-268h654v-144H430l-8 12v132" id="bV"/><use transform="matrix(0.007703993055555556,0,0,0.007703993055555556,0,0)" xlink:href="#bV" id="F"/><path fill="#c92d39" d="M664-1105c188-188 335-391 442-610l152 28c-32 60-65 119-100 176h582v126l-169 212h369V17c0 144-63 216-188 216-71 0-131-1-182-4-8-47-18-95-30-146 73 7 129 10 166 10 61 0 92-33 92-98v-230h-330v446h-142v-446H996C960-22 889 150 782 283c-33-39-72-79-116-120C810-8 882-258 882-589v-533c-34 41-69 80-104 119-32-31-70-65-114-102zM10-541c151-244 262-521 331-832H74v-136h716v136H483c-33 145-73 283-122 416h343v916H368v152H236v-770c-38 79-79 155-124 228-27-32-61-69-102-110zm562 368v-652H368v652h204zm988-1210h-483c-49 73-100 143-154 210h480zm-92 1020h330v-274h-330v274zm330-674h-330v272h330v-272zm-785 674h313v-274h-302c0 32-4 123-11 274zm11-402h302v-272h-302v272" id="bW"/><use transform="matrix(0.006618923611111111,0,0,0.006618923611111111,0,0)" xlink:href="#bW" id="G"/><path fill="#c92d39" d="M1212-1681h162c-1 175-7 347-7 515 0 613 292 1021 657 1237-48 53-91 105-130 154-285-200-478-520-581-960-73 403-278 735-615 996-31-37-69-80-116-128 413-297 619-734 624-1310 1-149 6-317 6-504zM808-523c8 59 19 113 32 162C701-254 568-145 442-31c-36 33-67 68-92 104L232-51c43-44 64-103 64-176v-674H28v-144h424v816c99-79 217-177 356-294zM328-1665c128 129 241 247 338 354l-138 114c-93-117-199-240-318-368" id="bX"/><use transform="matrix(0.006618923611111111,0,0,0.006618923611111111,0,0)" xlink:href="#bX" id="H"/><path fill="#c92d39" d="M26 137C197-53 236-242 238-619v-280h946c90-133 171-265 242-396l154 98c-71 99-145 199-222 298h592v140H400c4 246-12 541-54 668-42 128-108 251-212 364-35-43-71-88-108-136zm48-1608h913c-29-55-62-111-97-168l148-74c43 71 88 151 133 242h831v142H74v-142zm418 256l132-88c83 104 156 203 220 296l-142 98c-52-88-122-190-210-306" id="bY"/><use transform="matrix(0.006618923611111111,0,0,0.006618923611111111,0,0)" xlink:href="#bY" id="I"/><path fill="#c92d39" d="M334-1615h1380v792h-160v-64H494v64H334v-792zm814 956h764v924h-152V129h-460v136h-152v-924zm-1010 0h762v924H748V131H290v134H138v-924zm1416-816H494v448h1060v-448zm206 956h-460V-1h460v-518zm-1012 0H290V-5h458v-514" id="bZ"/><use transform="matrix(0.006618923611111111,0,0,0.006618923611111111,0,0)" xlink:href="#bZ" id="J"/><path fill="#c92d39" d="M880 111c154-103 291-224 412-361-77-197-123-514-137-953H400v304h576c-8 255-18 469-32 642C929-73 839 19 676 19c-55 0-127-3-218-8-8-49-19-105-32-166 93 13 171 20 234 20 77 0 121-53 130-160 11-123 19-275 24-456H399C388-288 295 55 118 277c-33-45-68-91-104-138C165-61 240-377 240-809v-542h909c-5-105-9-219-13-342h166c-1 94 1 208 5 342h689v148h-684c13 359 46 627 99 804 129-175 236-374 319-596l158 66c-115 271-252 507-413 708 98 199 194 299 287 299 34 0 64-30 78-93 22-96 33-197 44-300 57 23 108 41 152 56-20 143-45 259-66 350-45 197-262 192-402 76-78-65-149-147-206-256-113 121-235 228-368 320-35-40-73-80-114-120zm574-1706l84-104c112 64 217 131 314 200l-96 120c-96-76-197-148-302-216" id="ca"/><use transform="matrix(0.006618923611111111,0,0,0.006618923611111111,0,0)" xlink:href="#ca" id="K"/><path fill="#c92d39" d="M2010-257c-35 35-80 81-136 140-323-249-580-567-772-956v792h458v140h-458v410H946v-410H472v-140h474v-792C776-734 515-408 164-93c-52-49-96-89-132-120 379-311 663-641 851-988H76v-148h870v-360h156v360h870v148h-813c212 399 496 713 851 944" id="cb"/><use transform="matrix(0.006618923611111111,0,0,0.006618923611111111,0,0)" xlink:href="#cb" id="L"/><path fill="#c92d39" d="M1044-1457h884V213h-160V19h-564v194h-160v-1670zm724 148h-564v1184h564v-1184zM24-287c152-201 273-425 362-672H36v-136h382v-316c-104 16-209 31-316 44-12-44-27-90-44-138 277-31 546-76 806-136l46 140c-111 23-224 44-340 64v342h374v136H570v258l72-72c105 91 209 187 310 288L838-369c-80-92-169-186-268-282v930H418v-960c-79 197-185 386-318 566-21-52-47-109-76-172" id="cc"/><use transform="matrix(0.006618923611111111,0,0,0.006618923611111111,0,0)" xlink:href="#cc" id="M"/><use transform="matrix(0.006618923611111111,0,0,0.006618923611111111,0,0)" xlink:href="#bV" id="N"/><path fill="#c92d39" d="M22-693c180-281 321-611 422-990l156 48c-48 153-99 297-152 430V273H298V-871C231-740 162-623 90-519c-25-72-48-130-68-174zm1360-994l-28 50c165 292 388 503 668 632-35 40-71 87-110 140-271-156-484-369-640-640-149 257-360 481-632 672-32-47-67-89-104-126 301-189 523-432 666-728h180zm-322 782v284c0 385-111 687-332 906-39-39-83-76-134-112C801-16 904-276 904-607v-298h156zm422 0h156V265h-156V-905" id="cd"/><use transform="matrix(0.006618923611111111,0,0,0.006618923611111111,0,0)" xlink:href="#cd" id="O"/><path fill="#834187" d="M2036-79c-47 60-86 117-118 170-350-131-622-344-816-637v823H946v-820C751-271 482-49 140 123 109 78 71 28 26-27c341-145 605-334 793-566H52v-152h894v-176h156v176h892v152h-768c187 249 457 421 810 514zM198-1433c-8-53-17-104-28-152 733-8 1295-25 1686-52l24 152c-441 21-1002 39-1682 52zm1140 464c119-132 247-287 384-464l140 104c-132 153-269 308-410 464zm-518-368l132-78c120 167 207 292 260 376l-146 84c-63-109-145-237-246-382zm-598 80l118-86c99 115 198 235 298 360l-136 96c-97-137-191-261-280-370" id="ce"/><use transform="matrix(0.007703993055555556,0,0,0.007703993055555556,0,0)" xlink:href="#ce" id="P"/><path fill="#834187" d="M140-1585h676v574c133-204 233-434 298-690l158 36c-32 96-65 187-100 274h764c-8 648-14 1079-24 1294-10 216-123 324-332 324-115 0-237-3-366-8-8-53-19-108-32-164 129 15 248 24 356 24 140 0 215-71 222-208 11-227 16-599 20-1116h-668c-49 116-101 222-154 318-39-25-86-50-142-74v656H672v-1094H284v1106H140v-1252zM1484-275c-218 17-379 24-558 66l-62-130c47-29 82-69 104-120 74-177 143-391 208-640l152 36c-80 247-159 474-238 682 113-7 233-15 360-24-32-117-66-236-102-356l138-40c61 192 121 393 178 604l-150 44c-11-40-21-81-30-122zM406-1265h144c0 325 10 791-54 1004l58-54C690-174 809-45 912 71L786 177C691 56 587-68 474-193 426-41 311 114 128 273c-29-41-65-82-106-122C178 35 273-93 332-221c83-180 73-716 74-1044" id="cf"/><use transform="matrix(0.007703993055555556,0,0,0.007703993055555556,0,0)" xlink:href="#cf" id="Q"/><path fill="#fcc438" d="M26-559c123-39 243-79 360-118v-468H58v-152h328v-384h160v384h298v152H546v413c111-38 219-76 324-115 4 68 9 121 16 160-115 40-228 80-340 121V23c0 145-69 218-208 218-60 0-137-1-230-2-7-56-15-112-24-168 67 9 138 14 214 14 59 0 88-32 88-96v-498c-106 39-211 77-314 116zm840-972h1154v152h-344V-25c0 169-83 255-250 256-87 1-203 1-348-2-7-61-17-122-32-182 151 11 263 16 338 16 83 0 124-47 124-140v-1302H866v-152" id="cg"/><use transform="matrix(0.007703993055555556,0,0,0.007703993055555556,0,0)" xlink:href="#cg" id="R"/><path fill="#fcc438" d="M532-1707l164 44c-29 69-60 137-92 202h1152c-5 476-18 805-32 988-18 221-126 331-330 330-53 0-148-3-284-8-8-51-19-106-32-166 111 11 209 16 294 16 121 0 186-63 196-194 14-169 24-443 28-822H530c-47 85-97 167-150 246h832v584H488v376C488-6 543 47 654 47h932c127 0 200-41 222-122 20-73 36-171 48-294 57 23 111 42 160 58-16 119-34 215-52 290-34 148-147 222-340 222H620c-195 0-292-95-292-284v-910c-65 89-135 174-208 254-31-53-64-100-100-140 232-252 403-528 512-828zm524 772H488v312h568v-312" id="ch"/><use transform="matrix(0.007703993055555556,0,0,0.007703993055555556,0,0)" xlink:href="#ch" id="S"/><path fill="#fcc438" d="M352-1613h1344v622h-160v-74H512v74H352v-622zm742 936c1 126-3 292-30 400 288 113 603 249 944 408l-90 150c-260-135-562-275-906-420-24 48-54 91-92 126-154 145-416 245-784 304-23-56-52-107-88-152C423 82 669-9 792-127c80-76 125-185 134-330 5-75 7-148 6-220h162zM242-877h1566v730h-160v-590H402v602H242v-742zm1294-328v-268H512v268h1024" id="ci"/><use transform="matrix(0.007703993055555556,0,0,0.007703993055555556,0,0)" xlink:href="#ci" id="T"/><path fill="#ef8d22" d="M1002-931c-305 27-513 33-742 70l-64-168c64-16 124-39 180-70 167-93 335-204 503-331-229 14-460 26-695 37-9-47-21-93-36-140 636-24 1201-61 1694-110l30 142c-289 24-583 46-881 65l81 57c-209 140-403 258-580 354 299-17 546-33 742-48 133-85 257-171 370-258l130 106c-335 239-723 462-1166 670 265-9 587-23 965-42-67-61-134-121-201-180l106-102c171 137 345 288 524 452-44 43-85 83-122 122-55-55-111-109-168-162-178 7-360 16-546 26V9c0 152-80 228-240 228-65 0-151-1-258-4-7-49-15-104-26-164 112 12 198 18 258 18 73 0 110-36 110-108v-412c-237 17-497 17-720 54l-66-172c88-16 172-40 250-78 205-98 393-201 568-302zm318 708l102-108c168 112 353 246 554 402l-118 130c-187-155-366-296-538-424zM538-329l130 102C497-74 318 74 130 217 98 178 61 138 20 95 193-24 366-165 538-329" id="cj"/><use transform="matrix(0.007703993055555556,0,0,0.007703993055555556,0,0)" xlink:href="#cj" id="V"/><path fill="#ef8d22" d="M999-684c-87 4-171 13-243 31l-68-156c57-24 104-56 138-96 100-119 194-249 282-390H672v-142h638c-50-77-97-145-142-204l132-82c51 63 107 137 170 224l-95 62h609v142h-812l110 48c-111 149-219 287-326 412 251-9 482-18 693-27-51-81-99-156-145-223l128-80c112 151 227 321 344 510-47 27-96 57-148 90-33-57-65-111-96-163-62 4-126 8-192 11v678c0 81 30 122 90 122 111 0 199 5 210-100 8-80 17-167 20-260 44 19 97 38 160 58-11 116-23 206-34 270-20 116-89 174-210 174h-172c-145 0-218-83-218-250v-683c-75 4-152 9-232 14-11 290-50 491-112 607-78 146-218 268-426 364-29-41-63-86-102-134C707 64 833-41 902-167c57-104 92-274 97-517zM286-491c107-15 243-35 410-60-8 53-15 103-20 148-167 23-357 51-572 86L72-461c83-85 182-224 297-417-139 9-238 16-299 21L32-993c117-155 244-391 380-708l152 60c-129 253-247 465-354 636 87-1 166-3 236-6 40-71 82-149 126-232l150 66C570-912 425-683 286-491zM26-71c221-43 450-91 686-144-5 69-8 117-8 144C463-18 252 33 72 81" id="ck"/><use transform="matrix(0.007703993055555556,0,0,0.007703993055555556,0,0)" xlink:href="#ck" id="W"/><path fill="#ef8d22" d="M1022 261H884v-1330h440v-192H856v-132h468v-304h140v304h544v132h-544v192h450V33c0 132-60 199-180 202-61 1-125 2-192 2-8-48-18-99-30-154 105 8 264 50 264-82v-206h-312v438h-140v-438h-302v466zM222-717h232v-430h134v430h206v132H588v272c83-10 165-21 246-32-7 51-11 97-14 138-63 7-141 17-232 28v442H454v-425c-119 16-257 34-412 55L26-253c145-13 287-28 428-44v-288H76v-126c75-205 137-388 188-550H50v-130h254c35-121 62-227 82-320l154 32c-21 75-51 171-89 288h349v130H409c-51 153-114 335-187 544zm1554-224h-312v244h312v-244zm-312 612h312v-244h-312v244zm-442-368h302v-244h-302v244zm0 368h302v-244h-302v244zm606-1374c99 64 183 127 252 188-32 32-65 68-100 108-80-76-159-145-236-206" id="cl"/><use transform="matrix(0.007703993055555556,0,0,0.007703993055555556,0,0)" xlink:href="#cl" id="X"/><path fill="#ef8d22" d="M1010-1269h230c3-137 5-275 6-414h160c-1 136-3 274-6 414h510c-19 645-32 1041-40 1186-11 205-103 309-276 310-44 0-134-3-270-8-9-61-20-121-32-180 107 15 200 22 280 22 84 0 133-55 140-166 11-167 21-506 36-1018h-351c-5 337-27 585-65 742-63 261-195 479-398 654-27-48-60-97-100-146C909 68 973 0 1026-76 733-35 410 13 56 67L32-93c55-6 111-12 168-18v-1452h702v1363c47-7 93-14 140-21-1 27-4 71-7 133 65-97 110-207 141-329 36-145 58-380 61-706h-227v-146zM752-180v-321H350v373c133-16 267-33 402-52zm0-1249H350v332h402v-332zM350-633h402v-332H350v332" id="cm"/><use transform="matrix(0.007703993055555556,0,0,0.007703993055555556,0,0)" xlink:href="#cm" id="Y"/><path fill="#ef8d22" d="M736-459h1138v732h-154V153H890v120H736v-732zM26-737c196-291 343-612 442-964l156 44c-58 179-121 345-190 496V273H286V-868C225-761 160-662 92-573c-21-56-43-111-66-164zm1694 414H890V17h830v-340zM604-1431h653c-40-69-82-137-125-204l134-70c48 72 95 148 142 228l-87 46h691v140H604v-140zm110 326h1180v136H714v-136zm0 322h1180v136H714v-136" id="cn"/><use transform="matrix(0.007703993055555556,0,0,0.007703993055555556,0,0)" xlink:href="#cn" id="Z"/><path fill="#ef8d22" d="M292-1507h489c29-71 52-140 71-206l156 42c-22 57-45 111-69 164h797v1092h-154v-62H446v62H292v-1092zM502-339h152v294c0 83 44 124 132 124h444c107 0 168-37 186-110 12-48 27-121 40-218 49 20 101 39 156 58-16 92-34 166-48 222-32 126-130 190-298 190H762c-173 0-260-83-260-248v-312zm-56-570h1136v-168H446v168zm0 296h1136v-168H446v168zm1136-758H446v166h1136v-166zM204-359l146 50C291-149 230-3 166 129c-43-19-92-38-148-58C83-45 145-188 204-359zm1434 64l116-90c95 103 191 215 290 338l-128 98c-91-123-183-238-278-346zm-786-66l108-92c81 75 171 164 268 268L1106-81c-99-116-183-209-254-280" id="co"/><use transform="matrix(0.007703993055555556,0,0,0.007703993055555556,0,0)" xlink:href="#co" id="aa"/><path fill="#ef8d22" d="M745-538H156v-151h589v151" id="cp"/><use transform="matrix(0.007703993055555556,0,0,0.007703993055555556,0,0)" xlink:href="#cp" id="ab"/><path fill="#ef8d22" d="M2024-41c-37 45-75 95-112 148-351-175-621-402-810-680v836H946v-834C743-302 473-68 134 131 109 95 73 50 26-3c362-190 648-419 858-686H58v-148h888v-376H176v-148h770v-342h156v342h778v148h-778v376h888v148h-832c215 287 503 503 866 648" id="cq"/><use transform="matrix(0.007703993055555556,0,0,0.007703993055555556,0,0)" xlink:href="#cq" id="ac"/><path fill="#ef8d22" d="M594 261H436V-774c-97 113-203 221-320 325-28-47-60-95-96-146 257-215 458-454 603-716H76v-148h622c38-83 71-169 98-256l166 38c-27 74-56 147-88 218h1130v148H802c-41 79-87 155-136 230h1096V-13c0 165-81 248-242 248-71 0-178 2-322 2-7-45-17-100-30-164 123 9 221 14 296 14 92 0 138-45 138-136v-142H594v452zm0-588h1008v-240H594v240zm1008-614H594v238h1008v-238" id="cr"/><use transform="matrix(0.007703993055555556,0,0,0.007703993055555556,0,0)" xlink:href="#cr" id="ad"/><path fill="#ef8d22" d="M1494-1683h164v440h286v144h-286v552h356v144H560v-144h338v-552H640v-144h258v-438h164v438h432v-440zM8-739c209-281 374-602 494-962l160 58c-69 178-140 341-214 490V269H288V-862C219-750 149-649 76-559 57-614 35-674 8-739zm1054 192h432v-552h-432v552zm336 302l118-100c211 195 375 357 494 488l-132 122c-136-161-296-331-480-510zm-238 4C1003-49 839 122 668 273c-36-41-77-80-122-116 169-128 328-293 476-494" id="cs"/><use transform="matrix(0.007703993055555556,0,0,0.007703993055555556,0,0)" xlink:href="#cs" id="ae"/><path fill="#ef8d22" d="M950-1643l146-78c57 73 112 153 164 238l-97 56h811v152H416v490c0 472-97 825-292 1058-32-44-71-90-116-138C168-44 248-349 248-781v-646h846c-43-73-91-145-144-216zM404 3h925c104-266 214-630 331-1092l174 48C1709-601 1599-253 1502 3h494v152H404V3zm108-982l152-52c83 243 163 515 240 816l-170 52c-61-264-135-536-222-816zm482-100l154-44c69 240 131 509 184 806l-176 46c-39-264-93-533-162-808" id="ct"/><use transform="matrix(0.007703993055555556,0,0,0.007703993055555556,0,0)" xlink:href="#ct" id="af"/><path fill="#ef8d22" d="M192-1059h486c-46-67-96-134-150-200l122-82c64 75 122 144 174 208l-108 74h454c67-87 129-178 186-274l152 88c-63 75-117 137-160 186h498V-11c0 168-77 253-230 254-83 1-176 1-280-2-11-77-21-133-30-168 105 11 192 16 260 16 87 0 130-48 130-144v-866H342V267H192v-1326zM624 69v-644h802v538H768V69H624zM46-1487h913c-25-47-56-100-93-158l154-70c40 69 82 145 126 228h862v142H46v-142zM1282-165v-282H768v282h514zM778-899l108 104C730-662 584-544 448-443c-40-55-71-94-94-118 147-97 288-210 424-338zm352 110l88-110c197 124 347 223 448 298l-100 126c-132-107-277-211-436-314" id="cu"/><use transform="matrix(0.007703993055555556,0,0,0.007703993055555556,0,0)" xlink:href="#cu" id="ag"/><path fill="#ef8d22" d="M790-1595h1106c-7 136-14 239-18 308-10 165-107 248-292 248-77 0-190-1-338-4-9-51-20-104-32-160 147 13 264 20 352 20 100 0 153-41 160-122 4-43 7-93 8-150H946v572h962v138c-65 239-173 440-325 604 122 99 269 179 441 238-47 59-85 108-116 148-171-82-317-175-439-280-125 103-268 202-431 296-24-40-53-85-88-136 157-85 293-175 407-268-137-154-234-354-290-600H946V275H790v-1870zM30-639c101-28 198-56 292-83v-433H56v-138h266v-390h154v390h238v138H476v386c81-25 159-51 234-76 0 64 1 116 4 156-77 25-157 50-238 77V21c0 144-65 217-194 220-53 1-119 1-198 0-8-56-17-113-26-170 79 8 138 12 178 12 57 0 86-33 86-98v-547c-89 29-179 58-272 89zm1716-104h-538c45 195 132 361 261 498 133-139 225-305 277-498" id="cv"/><use transform="matrix(0.007703993055555556,0,0,0.007703993055555556,0,0)" xlink:href="#cv" id="ah"/><path fill="#ef8d22" d="M22-693c180-281 321-611 422-990l156 48c-48 153-99 297-152 430V273H298V-871C231-740 162-623 90-519c-25-72-48-130-68-174zm1360-994l-28 50c165 292 388 503 668 632-35 40-71 87-110 140-271-156-484-369-640-640-149 257-360 481-632 672-32-47-67-89-104-126 301-189 523-432 666-728h180zm-322 782v284c0 385-111 687-332 906-39-39-83-76-134-112C801-16 904-276 904-607v-298h156zm422 0h156V265h-156V-905" id="cw"/><use transform="matrix(0.007703993055555556,0,0,0.007703993055555556,0,0)" xlink:href="#cw" id="ai"/><path fill="#ef8d22" d="M114-1371h202c49-121 90-232 122-332l168 48c-42 102-83 197-122 284h400V221H724V65H274v170H114v-1606zm800 410c125-199 231-446 318-742l168 42c-34 101-69 195-104 284h644c-16 685-31 1117-40 1294-11 209-119 314-330 314-121 0-245-4-370-12-8-67-19-126-32-178 135 17 260 29 372 28 121 0 187-64 196-192 15-199 25-567 32-1104h-536c-58 129-118 242-180 340-36-25-82-50-138-74zM274-85h450v-506H274v506zm450-1136H274v486h450v-486zm366 396l122-90c148 175 266 326 354 454l-148 104c-95-155-204-311-328-468" id="cx"/><use transform="matrix(0.007703993055555556,0,0,0.007703993055555556,0,0)" xlink:href="#cx" id="aj"/><use transform="matrix(0.007703993055555556,0,0,0.007703993055555556,0,0)" xlink:href="#bH" id="ak"/><use transform="matrix(0.007703993055555556,0,0,0.007703993055555556,0,0)" xlink:href="#bI" id="al"/><use transform="matrix(0.007703993055555556,0,0,0.007703993055555556,0,0)" xlink:href="#cp" id="am"/><path fill="#ef8d22" d="M26 123C247-68 375-348 410-717l168 26c-16 123-40 238-73 345C608-126 769 0 986 33v-880H72v-150h1900v150h-820v324h696v148h-696V44c265 7 554 4 866-7-23 52-42 107-58 166-327 4-612-6-856-6-301 0-522-122-663-366C365 8 262 157 132 279c-31-52-66-104-106-156zm118-1584h853c-39-57-81-113-125-168l152-82c52 60 109 127 170 202l-90 48h810v380h-158v-230H302v228H144v-378" id="cy"/><use transform="matrix(0.007703993055555556,0,0,0.007703993055555556,0,0)" xlink:href="#cy" id="an"/><path fill="#ef8d22" d="M992-1647l128-76c59 76 111 149 158 218l-76 46h732v124h-710v144h648v124h-648v144h648v124h-648v148h750v124H422v78H274v-678c-55 64-111 125-168 182-27-41-58-83-94-126 199-185 355-398 468-638l144 52c-37 69-75 135-114 198h608c-37-61-79-124-126-188zM278-371h1512v644h-148V171H426v102H278v-644zm1364 128H426V43h1216v-286zM422-651h654v-148H422v148zm0-272h654v-144H422v144zm0-268h654v-144H430l-8 12v132" id="cz"/><use transform="matrix(0.007703993055555556,0,0,0.007703993055555556,0,0)" xlink:href="#cz" id="ao"/><use transform="matrix(0.007703993055555556,0,0,0.007703993055555556,0,0)" xlink:href="#bI" id="ap"/><filter id="U" filterUnits="objectBoundingBox" x="0" y="0" width="1.01" height="1.02"><feOffset result="offOut" in="SourceAlpha" dy="1"/><feGaussianBlur result="blurOut" in="offOut" stdDeviation=".5"/><feColorMatrix result="colorOut" in="blurOut" values="0 0 0 0 0 0 0 0 0 0 0 0 0 0 0 0 0 0 0.5019607843137255 0"/><feBlend in="SourceGraphic" in2="colorOut"/></filter><use transform="matrix(0.007703993055555556,0,0,0.007703993055555556,0,0)" xlink:href="#bI" id="ar"/><path fill="#ef8d22" d="M718-851c171-296 294-582 370-858l162 46c-43 123-87 241-134 354h872v148h-235c-20 386-119 700-297 943C1591-98 1783 6 2032 95c-41 52-79 105-114 160-237-101-427-218-568-351-129 127-307 250-534 369-28-44-62-89-102-134 227-114 403-232 527-354-154-193-254-432-299-718-37 73-76 143-116 210-25-39-61-81-108-128zM538-356c-117 70-255 138-350 241L74-249c41-44 62-101 62-172v-992h152v1024c79-42 163-87 250-134v-1170h152V261H538v-617zm1057-805h-532c19 325 113 599 282 822 152-214 235-488 250-822" id="cA"/><use transform="matrix(0.007703993055555556,0,0,0.007703993055555556,0,0)" xlink:href="#cA" id="as"/><path fill="#ef8d22" d="M652-1207c151-36 294-76 430-120v-368h156v314c197-72 376-154 536-246l94 134c-203 99-413 189-630 270v88c0 89 43 134 128 134h308c88 0 138-39 150-116 9-57 17-128 22-212 49 21 101 41 156 58-11 88-22 162-34 222-24 125-116 188-276 188h-356c-191 1-268-106-254-306-117 40-236 77-356 112zM314-737h1444v668h-156v-528H470v528H314v-668zM54-1147c235-171 414-361 538-572l144 82c-63 93-133 184-210 272v552H378v-398c-75 72-155 141-240 208-25-48-53-96-84-144zm904 642h156c1 156-5 260-18 312 273 93 555 197 846 312l-72 156c-293-127-569-235-826-326-103 176-391 287-866 334-20-44-46-95-78-152C559 96 829 4 914-143c31-53 47-173 44-362" id="cB"/><path fill="#ef8d22" d="M618 132L498 253C385 130 262 13 127-98l106-110C399-74 527 39 618 132" id="cC"/><g id="at"><use transform="matrix(0.007703993055555556,0,0,0.007703993055555556,0,0)" xlink:href="#cB"/><use transform="matrix(0.007703993055555556,0,0,0.007703993055555556,15.777777777777779,0)" xlink:href="#cC"/></g><path fill="#ef8d22" d="M302-1251h423c33-139 60-291 83-456l170 22c-23 151-50 296-83 434h1105v148H857c-24 88-50 173-79 254h992v138c-88 218-225 406-411 565 187 113 406 193 655 239-60 67-107 123-140 168-213-71-428-174-644-310-173 114-421 222-744 324-37-53-77-103-120-148 328-85 573-176 735-271-175-150-300-339-375-567C580-346 381-46 130 189 94 138 59 93 24 53c301-271 522-657 663-1156H132v-150c55-127 105-254 150-382l162 44c-47 117-94 231-142 340zm1292 540H871c60 185 179 344 357 477 173-143 295-302 366-477zm-308-858l88-112c131 83 256 169 376 258l-108 130c-116-99-235-191-356-276" id="cD"/><use transform="matrix(0.007703993055555556,0,0,0.007703993055555556,0,0)" xlink:href="#cD" id="au"/><use transform="matrix(0.007703993055555556,0,0,0.007703993055555556,0,0)" xlink:href="#cB" id="av"/><path fill="#ef8d22" d="M898 255H746V-759h1124V13c0 148-67 223-202 226-88 1-201 1-340 0-7-43-17-94-30-154 127 8 230 12 310 12 73 0 110-32 110-96v-108H898v362zM616-1007h612v-138H724v-126h504v-134H668v-126h560v-180h152v180h600v126h-600v134h544v126h-544v138h642v126H616v-126zm-318-686h142v407l76-55c68 80 129 154 182 222l-112 82c-41-61-90-128-146-201V261H298v-1954zM1718-631H898v138h820v-138zM898-231h820v-138H898v138zM102-1237l128 16c-15 161-39 333-72 514-31-8-74-17-130-28 29-131 54-298 74-502" id="cE"/><use transform="matrix(0.007703993055555556,0,0,0.007703993055555556,0,0)" xlink:href="#cE" id="aw"/><path fill="#ef8d22" d="M816-635H660v-964h1184v964h-156v-88h-192v700c0 67 31 100 94 100h138c64 0 99-35 108-106 8-63 15-145 18-248 45 19 99 39 162 60-9 105-22 193-34 264-20 116-92 174-220 174h-198c-149 0-224-73-224-218v-726h-207c-5 254-47 446-121 578C928 5 769 146 532 277c-29-45-63-91-100-136C651 21 796-103 872-229c65-108 102-271 107-494H816v88zm872-820H816v588h872v-588zM378-773c57 40 109 73 154 100-112 265-227 543-344 832L28 63c127-247 243-525 350-836zm-208-790c123 120 244 249 364 388l-138 124c-109-143-224-278-344-406" id="cF"/><use transform="matrix(0.007703993055555556,0,0,0.007703993055555556,0,0)" xlink:href="#cF" id="ax"/><use transform="matrix(0.007703993055555556,0,0,0.007703993055555556,0,0)" xlink:href="#bJ" id="ay"/><use transform="matrix(0.007703993055555556,0,0,0.007703993055555556,0,0)" xlink:href="#bK" id="az"/><path fill="#ef8d22" d="M1372 67c137 0 156-48 156-198v-964H612v-152h916v-438h162v438h290v152h-290V-83c0 208-94 313-282 316-63 1-163 1-300-2-7-52-17-112-32-180 128 11 227 16 296 16zM30-749c185-259 337-577 456-954l164 62c-55 149-112 287-170 415V261H320V-908C246-777 170-660 92-559c-24-89-45-153-62-190zm712-30l134-84c81 117 177 271 286 462l-144 90c-93-183-185-339-276-468" id="cG"/><use transform="matrix(0.007703993055555556,0,0,0.007703993055555556,0,0)" xlink:href="#cG" id="aA"/><path fill="#ef8d22" d="M844 253H692V-761h1182V25c0 141-71 212-214 212h-332c-7-43-17-94-30-154 124 8 225 12 302 12 81 0 122-35 122-104v-100H844v362zM550-1009h658v-136H684v-126h524v-136H616v-126h592v-180h154v180h624v126h-624v136h570v126h-570v136h660v126H550v-126zM92 195c80-248 149-506 206-774 59 25 113 46 162 62-64 248-128 503-192 766zm1630-828H844v138h878v-138zM844-233h878v-138H844v138zM26-1039l102-114c124 84 239 170 346 258-49 55-89 97-118 128-121-108-231-199-330-272zm78-522l104-106c88 67 203 161 344 282-45 44-85 83-120 118-137-129-247-227-328-294" id="cH"/><use transform="matrix(0.007703993055555556,0,0,0.007703993055555556,0,0)" xlink:href="#cH" id="aB"/><path fill="#ef8d22" d="M1372-1159h148c-1 101-5 194-5 277 0 484 233 820 507 1019-51 44-92 85-124 122-209-163-354-419-436-766-67 304-227 564-480 780-29-35-68-71-116-110 289-232 452-519 488-860 13-125 19-279 18-462zm-1264-20h374v-198H40v-128h442v-202h148v202h440v128H630v198h340v128H108v-128zm872 244c109-243 185-501 226-774l148 26c-19 101-40 198-63 292h671v138c-36 115-79 239-128 374-37-23-84-42-140-58 44-105 82-210 114-314h-555c-40 135-86 263-137 384-48-27-93-49-136-68zM46-577h1016v128H634V-9c0 152-75 228-226 228-71 0-132-1-184-2-8-53-18-105-30-154 55 8 113 12 174 12 79 0 118-41 118-122v-402H46v-128zm102-302h804v128H148v-128zM26-13c72-103 142-227 210-372l128 64C289-182 214-56 138 57 107 33 70 10 26-13zm698-304l116-62c64 91 121 184 172 280L886-29c-52-107-106-203-162-288" id="cI"/><use transform="matrix(0.007703993055555556,0,0,0.007703993055555556,0,0)" xlink:href="#cI" id="aC"/><path fill="#ef8d22" d="M830-1193h370l56-250H784v-140h1206v140h-560l-66 250h526v1044h-156v-904H986v904H830v-1044zM14-213c109-24 210-47 302-70v-1062H42v-144h686v144H472v1024c111-27 205-51 284-72 3 69 7 122 14 158C450-155 213-94 58-51zm1268-710h156c-1 244 15 499-56 676 233 125 442 250 626 374l-104 142c-184-137-379-265-584-384-115 183-302 300-598 410-27-41-60-87-100-136 261-88 441-199 542-330 78-102 118-251 118-448v-304" id="cJ"/><path fill="#ef8d22" d="M1130-248L961 285H821l123-533h186" id="cK"/><g id="aD"><use transform="matrix(0.007703993055555556,0,0,0.007703993055555556,0,0)" xlink:href="#cJ"/><use transform="matrix(0.007703993055555556,0,0,0.007703993055555556,15.777777777777779,0)" xlink:href="#cK"/></g><path fill="#ef8d22" d="M46 151C238-134 266-365 266-869v-714h1630V7c0 159-75 238-226 238-92 0-195-2-310-6-7-44-17-99-30-166 116 8 210 12 282 12 83 0 124-39 124-118v-368h-588v636H988v-636H406c-23 277-103 507-242 690-35-44-74-90-118-138zm1102-696h588v-374h-588v374zm588-890h-588v372h588v-372zM417-545h571v-374H426c4 129 1 254-9 374zm9-890v372h562v-372H426" id="cL"/><use transform="matrix(0.007703993055555556,0,0,0.007703993055555556,0,0)" xlink:href="#cL" id="aE"/><path fill="#ef8d22" d="M822 63c124 0 148-28 148-160v-628H40v-158h930v-516H200v-158h1656v158h-718v516h870v158h-870v686c-3 197-65 270-260 270-60 0-173-1-338-2-7-61-17-122-32-182 151 11 255 16 314 16" id="cM"/><use transform="matrix(0.007703993055555556,0,0,0.007703993055555556,0,0)" xlink:href="#cM" id="aF"/><path fill="#ef8d22" d="M32 97c581-336 889-925 922-1768h176c-7 143-21 279-42 408 165 667 476 1105 932 1316-56 61-105 119-148 174-396-224-678-620-847-1189C879-413 590-9 158 249 122 200 80 149 32 97" id="cN"/><use transform="matrix(0.007703993055555556,0,0,0.007703993055555556,0,0)" xlink:href="#cN" id="aG"/><path fill="#ef8d22" d="M114-1179h751c19-163 29-340 29-530h172c0 198-9 375-28 530h850c-8 412-21 752-36 1020-14 249-145 374-396 374-104 0-227-3-370-10-5-52-15-114-30-186 125 17 249 26 370 26 160 0 242-79 252-236 17-261 31-539 36-832h-698C918-435 644 2 194 289c-37-47-78-96-122-148 415-245 671-633 769-1164H114v-156zm950 516l110-98c128 119 244 235 348 350l-124 112c-103-121-214-243-334-364zm-808-912l108-100c111 96 217 195 320 296l-122 114c-99-108-201-211-306-310" id="cO"/><use transform="matrix(0.007703993055555556,0,0,0.007703993055555556,0,0)" xlink:href="#cO" id="aH"/><path fill="#ef8d22" d="M64-577h455c17-89 26-185 28-286H106v-140h446c7-176 10-403 10-680h156c-1 265-4 492-8 680h440v140H707c-1 101-9 196-23 286h500v140H656C585-140 440 99 222 279c-39-47-79-89-122-128C288 0 417-196 486-437H64v-140zm1688-1114h156V-17c0 172-85 258-254 258-67 0-162-1-286-4-7-59-16-115-28-170 103 11 191 16 266 16 97 0 146-52 146-156v-1618zm-426 224h154v1224h-154v-1224zm-518 274c101-124 185-245 252-364l142 88c-96 141-187 265-272 370zM86-1473l124-80c89 115 173 231 252 350l-138 94c-87-147-166-268-238-364" id="cP"/><use transform="matrix(0.007703993055555556,0,0,0.007703993055555556,0,0)" xlink:href="#cP" id="aI"/><path fill="#ef8d22" d="M1188-1543c280-11 539-39 776-86l54 148c-235 28-463 51-684 70v450h688v138h-252V253h-146V-823h-290v190c0 389-92 696-276 920-32-39-70-80-114-124 163-188 244-455 244-802v-904zM266-331c137-153 244-328 323-526H304v-134h342v-678h140v678h304v134H786v172l60-50c80 81 166 175 258 282l-110 96c-64-83-133-167-208-252v544H646v-636c-73 186-179 361-318 526-17-55-38-107-62-156zM120-1623h142V-21h696v134H120v-1736zm696 456c73-120 137-245 190-374l136 64c-57 111-126 236-206 376zm-518-316l116-54c59 112 118 233 178 364l-130 64c-64-156-119-281-164-374" id="cQ"/><use transform="matrix(0.007703993055555556,0,0,0.007703993055555556,0,0)" xlink:href="#cQ" id="aJ"/><path fill="#ef8d22" d="M348-1625h1360v834h-152v-80H500v80H348v-834zM448-497l152 46c-21 70-46 136-73 199C628-88 779 10 980 43v-602H68v-140h1924v140h-852v200h712v136h-712V55c256 5 553 3 890-8-21 57-40 110-56 158-392 1-693-2-904-6-282-5-486-108-611-314-91 165-207 298-347 400-27-40-59-83-98-130C229 11 373-206 448-497zm52-510h1056v-176H500v176zm1056-482H500v174h1056v-174" id="cR"/><use transform="matrix(0.007703993055555556,0,0,0.007703993055555556,0,0)" xlink:href="#cR" id="aK"/><path fill="#ef8d22" d="M300-627h1448v888h-162V127H462v138H300v-892zm-188-960h1824v144h-748c-47 56-99 112-158 168h86v582H954v-514c-249 207-523 379-820 516-23-40-57-89-102-146 379-163 700-365 964-606H112v-144zM1586-483H462v470h1124v-470zm-428-676l86-116c289 147 548 294 776 442l-106 138c-228-159-480-313-756-464" id="cS"/><use transform="matrix(0.007703993055555556,0,0,0.007703993055555556,0,0)" xlink:href="#cS" id="aL"/><path fill="#ef8d22" d="M260-1091h882v790H418v142H260v-932zM38-1539h1976v152h-332V-33c0 180-87 272-262 272-125 0-247-1-366-2-7-61-17-122-32-182 151 11 265 16 344 16 99 0 148-53 148-160v-1298H38v-152zm946 590H418v506h566v-506" id="cT"/><use transform="matrix(0.007703993055555556,0,0,0.007703993055555556,0,0)" xlink:href="#cT" id="aM"/><path fill="#ef8d22" d="M1542-1655h164v360c0 369-47 661-142 878 165 171 321 339 468 504l-138 126c-137-169-273-330-409-483-154 234-386 417-695 549-31-41-67-87-108-138 336-155 558-336 678-538s185-501 182-902v-356zM922-547c4 87 9 150 16 190C618-156 418-30 340 23c-44 30-86 64-126 100L100-35c63-56 92-123 92-202v-1390h164v1430c147-88 335-205 566-350zm-82-1154c89 141 189 311 298 508l-156 88c-104-205-199-379-284-520" id="cU"/><use transform="matrix(0.007703993055555556,0,0,0.007703993055555556,0,0)" xlink:href="#cU" id="aN"/><path fill="#ef8d22" d="M897-1004c0-68 61-126 129-126s129 59 129 126c0 68-59 127-129 127s-129-59-129-127zm233 756L961 285H821l123-533h186" id="cV"/><g id="aO"><use transform="matrix(0.007703993055555556,0,0,0.007703993055555556,0,0)" xlink:href="#cB"/><use transform="matrix(0.007703993055555556,0,0,0.007703993055555556,15.777777777777779,0)" xlink:href="#cV"/></g><use transform="matrix(0.007703993055555556,0,0,0.007703993055555556,0,0)" xlink:href="#cj" id="aP"/><path fill="#ef8d22" d="M72-1527h1906v156h-736c-64 111-149 242-256 394h116V277H930V-915C702-634 433-394 124-195c-33-48-71-96-112-144 420-263 759-607 1016-1032H72v-156zm1230 612c249 152 490 307 722 464l-114 158c-275-204-510-366-706-486" id="cW"/><use transform="matrix(0.007703993055555556,0,0,0.007703993055555556,0,0)" xlink:href="#cW" id="aQ"/><path fill="#ef8d22" d="M1466-1691l146 24c-24 127-51 245-82 356h474v130h-102c-19 383-86 693-202 930 85 147 194 264 326 352-35 49-66 99-94 148-127-101-232-220-316-356-93 140-211 272-352 396-27-39-60-81-100-126 161-136 285-275 370-418-85-181-140-389-164-622-32 68-66 132-102 192-24-40-53-83-88-128 137-241 233-534 286-878zM584-755h228v-398H494v-136h318v-388h148v388h318v136H960v398h240v734H728v138H584v-872zM12-745c173-276 301-591 384-946l148 38c-43 156-89 302-140 438V271H268V-903C208-784 144-676 76-577c-19-53-40-109-64-168zm1044 122H728v470h328v-470zm698-558h-264c-5 16-11 31-16 46 16 279 64 517 144 714 79-193 124-447 136-760" id="cX"/><use transform="matrix(0.007703993055555556,0,0,0.007703993055555556,0,0)" xlink:href="#cX" id="aR"/><path fill="#ef8d22" d="M856-1595h948v996h-148v-54h-338c41 120 98 228 170 324 120-76 247-170 380-282l106 126c-147 103-277 191-392 264 116 117 262 211 438 282-49 48-92 97-128 146-371-195-609-481-716-860h-172V27c89-40 206-99 350-176 1 61 5 114 10 158-119 57-234 120-346 186-26 15-63 43-108 84L796 129c40-35 60-79 60-132v-1592zM728-513c49 342-75 470-392 432-11-55-25-111-44-168 71 17 132 25 184 16 91-15 121-113 92-286-19-107-79-227-182-360 48-145 111-339 188-582H278V285H128v-1886h606v140c-65 188-128 373-188 556 107 145 165 276 182 392zm928-276v-270h-652v270h652zm0-670h-652v266h652v-266" id="cY"/><use transform="matrix(0.007703993055555556,0,0,0.007703993055555556,0,0)" xlink:href="#cY" id="aS"/><path fill="#ef8d22" d="M610-1685h156v306h434v140H766v268h522v140H766v224h438v476c0 144-65 216-196 218-41 1-97 1-166 0-7-43-17-91-30-144 128 1 244 43 244-94v-320H766v742H610v-742H334v592H186v-728h424v-224H36v-140h574v-268H314c-34 77-73 149-116 218-44-25-89-51-136-76 105-159 179-331 220-516l148 38c-17 68-37 133-59 196h239v-306zm1140-2h160V-39c0 180-79 270-238 270-52 0-141-1-268-2-8-52-19-110-32-174 112 11 196 16 252 16 84 0 126-47 126-142v-1616zM1520-263h-154v-1232h154v1232" id="cZ"/><use transform="matrix(0.007703993055555556,0,0,0.007703993055555556,0,0)" xlink:href="#cZ" id="aT"/><path fill="#ef8d22" d="M812-573h1012v846h-152V139H964v136H812v-848zm-538 70c5 0 143-11 414-32-7 41-13 85-18 130-223 20-413 39-570 56L68-477c80-76 181-216 302-420-84 5-185 13-302 22l-42-126c115-131 240-360 376-688l158 56c-131 252-251 459-360 620 80-1 159-3 238-4 48-83 98-174 150-274l150 64C551-918 397-676 274-503zm1398 68H964V1h708v-436zm-240-1254l-42 68c156 255 370 465 642 632-39 40-77 83-116 130-261-185-465-394-610-626-145 245-334 463-566 652-25-29-64-67-116-112 269-205 479-453 630-744h178zM880-947h876v138H880v-138zM34-39c248-47 471-93 668-138-1 49-1 97 2 142C432 22 226 70 86 109" id="da"/><use transform="matrix(0.007703993055555556,0,0,0.007703993055555556,0,0)" xlink:href="#da" id="aU"/><use transform="matrix(0.007703993055555556,0,0,0.007703993055555556,0,0)" xlink:href="#cJ" id="aV"/><filter id="aq" filterUnits="objectBoundingBox" x="0" y="0" width="1.01" height="1.02"><feOffset result="offOut" in="SourceAlpha" dy="1"/><feGaussianBlur result="blurOut" in="offOut" stdDeviation=".5"/><feColorMatrix result="colorOut" in="blurOut" values="0 0 0 0 0 0 0 0 0 0 0 0 0 0 0 0 0 0 0.5019607843137255 0"/><feBlend in="SourceGraphic" in2="colorOut"/></filter><path fill="#c92d39" d="M196-1273h502v-218H100v-136h1848v136h-600v218h502v596h-148v-76H344v76H196v-596zM30-557h597c41-63 79-127 115-192l154 62c-29 44-58 87-87 130h1207v136h-462c-77 135-176 249-298 342 198 59 406 123 624 190l-88 156c-224-78-459-158-706-241-233 121-539 206-916 253-24-49-50-101-78-154C417 96 679 40 880-43 718-97 551-152 380-209c55-70 107-141 156-212H30v-136zm578 284c146 43 298 89 457 136 130-79 230-173 301-284H714c-35 51-71 100-106 148zm238-608h354v-264H846v264zm856-264h-354v264h354v-264zM344-881h354v-264H344v264zm502-392h354v-218H846v218" id="db"/><use transform="matrix(0.006618923611111111,0,0,0.006618923611111111,0,0)" xlink:href="#db" id="aW"/><path fill="#c92d39" d="M72-1337h878v-362h168v362h874v144h-874v124c65 149 143 285 232 408 139-120 269-253 392-400l142 118c-164 163-309 297-436 404 160 187 351 336 574 448-49 57-89 109-120 156-344-201-605-471-784-808V-9c0 172-90 258-270 258-96 0-185-1-266-4-8-55-19-114-32-178 105 12 191 18 258 18 95 0 142-49 142-146v-378C635-278 361-131 128 1L42-163c279-129 581-283 908-462v-568H72v-144zm294 264c107 105 215 223 326 354-41 35-87 72-138 112-93-121-196-244-308-368zm936-520l96-106c127 80 227 153 302 218l-108 120c-79-69-175-147-290-232" id="dc"/><use transform="matrix(0.006618923611111111,0,0,0.006618923611111111,0,0)" xlink:href="#dc" id="aX"/><path fill="#c92d39" d="M684-1325l146 62c-31 38-61 75-92 110h922v126c-111 129-257 240-440 333 221 69 491 104 810 105-36 52-69 106-100 162-357-27-653-90-888-187C783-510 467-434 92-387c-23-49-51-97-84-144 337-34 623-90 858-168-128-73-232-161-311-262-100 96-204 182-311 258-29-35-64-71-104-108 236-161 417-333 544-514zM376-375h1304v636h-148v-84H524v84H376v-636zM136-1465h863c-36-55-80-114-131-176l136-86c53 61 109 129 166 204l-92 58h846v374h-148v-242H284v240H136v-372zM1532-247H524V49h1008v-296zm-84-778H683c90 107 208 194 355 261 170-73 307-160 410-261" id="dd"/><use transform="matrix(0.006618923611111111,0,0,0.006618923611111111,0,0)" xlink:href="#dd" id="aY"/><path fill="#c92d39" d="M872-1637l144-86c64 76 127 159 190 248l-98 62h746v886h-160v-104H431C413-247 314 60 134 289c-36-44-75-88-116-132C189-51 274-363 274-779v-634h763c-49-75-104-149-165-224zm-438 368v494h1260v-494H434" id="de"/><use transform="matrix(0.006618923611111111,0,0,0.006618923611111111,0,0)" xlink:href="#de" id="aZ"/><path fill="#c92d39" d="M1372 67c137 0 156-48 156-198v-964H612v-152h916v-438h162v438h290v152h-290V-83c0 208-94 313-282 316-63 1-163 1-300-2-7-52-17-112-32-180 128 11 227 16 296 16zM30-749c185-259 337-577 456-954l164 62c-55 149-112 287-170 415V261H320V-908C246-777 170-660 92-559c-24-89-45-153-62-190zm712-30l134-84c81 117 177 271 286 462l-144 90c-93-183-185-339-276-468" id="df"/><use transform="matrix(0.006618923611111111,0,0,0.006618923611111111,0,0)" xlink:href="#df" id="ba"/><path fill="#c92d39" d="M1372-1159h148c-1 101-5 194-5 277 0 484 233 820 507 1019-51 44-92 85-124 122-209-163-354-419-436-766-67 304-227 564-480 780-29-35-68-71-116-110 289-232 452-519 488-860 13-125 19-279 18-462zm-1264-20h374v-198H40v-128h442v-202h148v202h440v128H630v198h340v128H108v-128zm872 244c109-243 185-501 226-774l148 26c-19 101-40 198-63 292h671v138c-36 115-79 239-128 374-37-23-84-42-140-58 44-105 82-210 114-314h-555c-40 135-86 263-137 384-48-27-93-49-136-68zM46-577h1016v128H634V-9c0 152-75 228-226 228-71 0-132-1-184-2-8-53-18-105-30-154 55 8 113 12 174 12 79 0 118-41 118-122v-402H46v-128zm102-302h804v128H148v-128zM26-13c72-103 142-227 210-372l128 64C289-182 214-56 138 57 107 33 70 10 26-13zm698-304l116-62c64 91 121 184 172 280L886-29c-52-107-106-203-162-288" id="dg"/><use transform="matrix(0.006618923611111111,0,0,0.006618923611111111,0,0)" xlink:href="#dg" id="bb"/><path fill="#834187" d="M1372 67c137 0 156-48 156-198v-964H612v-152h916v-438h162v438h290v152h-290V-83c0 208-94 313-282 316-63 1-163 1-300-2-7-52-17-112-32-180 128 11 227 16 296 16zM30-749c185-259 337-577 456-954l164 62c-55 149-112 287-170 415V261H320V-908C246-777 170-660 92-559c-24-89-45-153-62-190zm712-30l134-84c81 117 177 271 286 462l-144 90c-93-183-185-339-276-468" id="dh"/><use transform="matrix(0.006618923611111111,0,0,0.006618923611111111,0,0)" xlink:href="#dh" id="bc"/><path fill="#834187" d="M1372-1159h148c-1 101-5 194-5 277 0 484 233 820 507 1019-51 44-92 85-124 122-209-163-354-419-436-766-67 304-227 564-480 780-29-35-68-71-116-110 289-232 452-519 488-860 13-125 19-279 18-462zm-1264-20h374v-198H40v-128h442v-202h148v202h440v128H630v198h340v128H108v-128zm872 244c109-243 185-501 226-774l148 26c-19 101-40 198-63 292h671v138c-36 115-79 239-128 374-37-23-84-42-140-58 44-105 82-210 114-314h-555c-40 135-86 263-137 384-48-27-93-49-136-68zM46-577h1016v128H634V-9c0 152-75 228-226 228-71 0-132-1-184-2-8-53-18-105-30-154 55 8 113 12 174 12 79 0 118-41 118-122v-402H46v-128zm102-302h804v128H148v-128zM26-13c72-103 142-227 210-372l128 64C289-182 214-56 138 57 107 33 70 10 26-13zm698-304l116-62c64 91 121 184 172 280L886-29c-52-107-106-203-162-288" id="di"/><use transform="matrix(0.006618923611111111,0,0,0.006618923611111111,0,0)" xlink:href="#di" id="bd"/><path fill="#834187" d="M812-573h1012v846h-152V139H964v136H812v-848zm-538 70c5 0 143-11 414-32-7 41-13 85-18 130-223 20-413 39-570 56L68-477c80-76 181-216 302-420-84 5-185 13-302 22l-42-126c115-131 240-360 376-688l158 56c-131 252-251 459-360 620 80-1 159-3 238-4 48-83 98-174 150-274l150 64C551-918 397-676 274-503zm1398 68H964V1h708v-436zm-240-1254l-42 68c156 255 370 465 642 632-39 40-77 83-116 130-261-185-465-394-610-626-145 245-334 463-566 652-25-29-64-67-116-112 269-205 479-453 630-744h178zM880-947h876v138H880v-138zM34-39c248-47 471-93 668-138-1 49-1 97 2 142C432 22 226 70 86 109" id="dj"/><use transform="matrix(0.006618923611111111,0,0,0.006618923611111111,0,0)" xlink:href="#dj" id="be"/><path fill="#834187" d="M1494-1683h164v440h286v144h-286v552h356v144H560v-144h338v-552H640v-144h258v-438h164v438h432v-440zM8-739c209-281 374-602 494-962l160 58c-69 178-140 341-214 490V269H288V-862C219-750 149-649 76-559 57-614 35-674 8-739zm1054 192h432v-552h-432v552zm336 302l118-100c211 195 375 357 494 488l-132 122c-136-161-296-331-480-510zm-238 4C1003-49 839 122 668 273c-36-41-77-80-122-116 169-128 328-293 476-494" id="dk"/><use transform="matrix(0.006618923611111111,0,0,0.006618923611111111,0,0)" xlink:href="#dk" id="bf"/><path fill="#834187" d="M950-1643l146-78c57 73 112 153 164 238l-97 56h811v152H416v490c0 472-97 825-292 1058-32-44-71-90-116-138C168-44 248-349 248-781v-646h846c-43-73-91-145-144-216zM404 3h925c104-266 214-630 331-1092l174 48C1709-601 1599-253 1502 3h494v152H404V3zm108-982l152-52c83 243 163 515 240 816l-170 52c-61-264-135-536-222-816zm482-100l154-44c69 240 131 509 184 806l-176 46c-39-264-93-533-162-808" id="dl"/><use transform="matrix(0.006618923611111111,0,0,0.006618923611111111,0,0)" xlink:href="#dl" id="bg"/><path fill="#834187" d="M192-1059h486c-46-67-96-134-150-200l122-82c64 75 122 144 174 208l-108 74h454c67-87 129-178 186-274l152 88c-63 75-117 137-160 186h498V-11c0 168-77 253-230 254-83 1-176 1-280-2-11-77-21-133-30-168 105 11 192 16 260 16 87 0 130-48 130-144v-866H342V267H192v-1326zM624 69v-644h802v538H768V69H624zM46-1487h913c-25-47-56-100-93-158l154-70c40 69 82 145 126 228h862v142H46v-142zM1282-165v-282H768v282h514zM778-899l108 104C730-662 584-544 448-443c-40-55-71-94-94-118 147-97 288-210 424-338zm352 110l88-110c197 124 347 223 448 298l-100 126c-132-107-277-211-436-314" id="dm"/><use transform="matrix(0.006618923611111111,0,0,0.006618923611111111,0,0)" xlink:href="#dm" id="bh"/><path fill="#834187" d="M718-851c171-296 294-582 370-858l162 46c-43 123-87 241-134 354h872v148h-235c-20 386-119 700-297 943C1591-98 1783 6 2032 95c-41 52-79 105-114 160-237-101-427-218-568-351-129 127-307 250-534 369-28-44-62-89-102-134 227-114 403-232 527-354-154-193-254-432-299-718-37 73-76 143-116 210-25-39-61-81-108-128zM538-356c-117 70-255 138-350 241L74-249c41-44 62-101 62-172v-992h152v1024c79-42 163-87 250-134v-1170h152V261H538v-617zm1057-805h-532c19 325 113 599 282 822 152-214 235-488 250-822" id="dn"/><use transform="matrix(0.006618923611111111,0,0,0.006618923611111111,0,0)" xlink:href="#dn" id="bi"/><path fill="#834187" d="M652-1207c151-36 294-76 430-120v-368h156v314c197-72 376-154 536-246l94 134c-203 99-413 189-630 270v88c0 89 43 134 128 134h308c88 0 138-39 150-116 9-57 17-128 22-212 49 21 101 41 156 58-11 88-22 162-34 222-24 125-116 188-276 188h-356c-191 1-268-106-254-306-117 40-236 77-356 112zM314-737h1444v668h-156v-528H470v528H314v-668zM54-1147c235-171 414-361 538-572l144 82c-63 93-133 184-210 272v552H378v-398c-75 72-155 141-240 208-25-48-53-96-84-144zm904 642h156c1 156-5 260-18 312 273 93 555 197 846 312l-72 156c-293-127-569-235-826-326-103 176-391 287-866 334-20-44-46-95-78-152C559 96 829 4 914-143c31-53 47-173 44-362" id="do"/><use transform="matrix(0.006618923611111111,0,0,0.006618923611111111,0,0)" xlink:href="#do" id="bj"/><path fill="#834187" d="M1077 0H189v-169h347v-1176l-356 103v-180l551-160v1413h346V0" id="dp"/><use transform="matrix(0.006618923611111111,0,0,0.006618923611111111,0,0)" xlink:href="#dp" id="bk"/><path fill="#834187" d="M611-1575c267 0 453 158 451 417 0 96-26 190-78 282-116 208-456 506-646 698v4h710V0H106v-170l450-449c124-124 207-223 249-295s63-147 63-224c0-179-106-273-288-273-138 0-270 59-395 176v-199c122-94 264-141 426-141" id="dq"/><use transform="matrix(0.006618923611111111,0,0,0.006618923611111111,0,0)" xlink:href="#dq" id="bl"/><path fill="#fcc438" d="M302-1251h423c33-139 60-291 83-456l170 22c-23 151-50 296-83 434h1105v148H857c-24 88-50 173-79 254h992v138c-88 218-225 406-411 565 187 113 406 193 655 239-60 67-107 123-140 168-213-71-428-174-644-310-173 114-421 222-744 324-37-53-77-103-120-148 328-85 573-176 735-271-175-150-300-339-375-567C580-346 381-46 130 189 94 138 59 93 24 53c301-271 522-657 663-1156H132v-150c55-127 105-254 150-382l162 44c-47 117-94 231-142 340zm1292 540H871c60 185 179 344 357 477 173-143 295-302 366-477zm-308-858l88-112c131 83 256 169 376 258l-108 130c-116-99-235-191-356-276" id="dr"/><use transform="matrix(0.006618923611111111,0,0,0.006618923611111111,0,0)" xlink:href="#dr" id="bm"/><path fill="#fcc438" d="M652-1207c151-36 294-76 430-120v-368h156v314c197-72 376-154 536-246l94 134c-203 99-413 189-630 270v88c0 89 43 134 128 134h308c88 0 138-39 150-116 9-57 17-128 22-212 49 21 101 41 156 58-11 88-22 162-34 222-24 125-116 188-276 188h-356c-191 1-268-106-254-306-117 40-236 77-356 112zM314-737h1444v668h-156v-528H470v528H314v-668zM54-1147c235-171 414-361 538-572l144 82c-63 93-133 184-210 272v552H378v-398c-75 72-155 141-240 208-25-48-53-96-84-144zm904 642h156c1 156-5 260-18 312 273 93 555 197 846 312l-72 156c-293-127-569-235-826-326-103 176-391 287-866 334-20-44-46-95-78-152C559 96 829 4 914-143c31-53 47-173 44-362" id="ds"/><use transform="matrix(0.006618923611111111,0,0,0.006618923611111111,0,0)" xlink:href="#ds" id="bn"/><path fill="#fcc438" d="M611-1575c267 0 453 158 451 417 0 96-26 190-78 282-116 208-456 506-646 698v4h710V0H106v-170l450-449c124-124 207-223 249-295s63-147 63-224c0-179-106-273-288-273-138 0-270 59-395 176v-199c122-94 264-141 426-141" id="dt"/><use transform="matrix(0.006618923611111111,0,0,0.006618923611111111,0,0)" xlink:href="#dt" id="bo"/><path fill="#fcc438" d="M1077 0H189v-169h347v-1176l-356 103v-180l551-160v1413h346V0" id="du"/><use transform="matrix(0.006618923611111111,0,0,0.006618923611111111,0,0)" xlink:href="#du" id="bp"/></defs></g></svg>